<svg xmlns="http://www.w3.org/2000/svg" xmlns:xlink="http://www.w3.org/1999/xlink" viewBox="0 0 1250 703"><defs><style>.cls-1{fill:none;}.cls-2{clip-path:url(#clip-path);}.cls-3{fill:#0033a1;}.cls-4{clip-path:url(#clip-path-2);}</style><clipPath id="clip-path"><rect class="cls-1" x="23" y="205" width="1181" height="260.97"/></clipPath><clipPath id="clip-path-2"><rect class="cls-1" x="23" y="205" width="1181" height="260.97"/></clipPath></defs><g id="LOGO"><g class="cls-2"><polygon class="cls-3" points="1088.48 298.14 1081.06 298.14 1081.06 295.15 1099.32 295.15 1099.32 298.14 1091.9 298.14 1091.9 318.93 1088.48 318.93 1088.48 298.14"/><polygon class="cls-3" points="1102.76 295.16 1108.41 295.16 1115.91 314.91 1123.26 295.16 1128.89 295.16 1128.89 318.92 1125.47 318.92 1125.47 298.35 1125.41 298.35 1117.53 318.92 1114.15 318.92 1106.26 298.35 1106.18 298.35 1106.18 318.92 1102.76 318.92 1102.76 295.16"/><rect class="cls-3" x="274.31" y="294.72" width="34.02" height="127.05"/><path class="cls-3" d="M509.19,294.83H550.9l49.2,127.68H562.78l-9.52-27.24H505.35l-10.07,27.24H460.71ZM530,321.17h-.37l-16.46,49.95h32L530,321.17"/><g class="cls-4"><path class="cls-3" d="M616.67,294.83h58.71c23.78,0,41.52,10.42,41.52,32.37,0,16.1-8.23,25.06-22.49,29.82v.36c17,3.48,25.78,12.63,25.78,28.18,0,30.55-26.88,36.95-49.75,36.95H616.67Zm34,103.53h10.06c12.43,0,25.42-1.82,25.42-14.82,0-13.89-13.36-15.18-25-15.18H650.69Zm0-53.05h9.51c11.16,0,22.68-2.74,22.68-13.54,0-11.7-11-12.8-22.31-12.8h-9.88v26.34"/><polygon class="cls-3" points="766.26 374.4 719.07 294.82 758.22 294.82 783.27 346.04 807.97 294.82 847.11 294.82 800.29 374.4 800.29 422.51 766.26 422.51 766.26 374.4"/><polygon class="cls-3" points="892.6 320.07 861.14 320.07 861.14 294.82 958.09 294.82 958.09 320.07 926.62 320.07 926.62 422.51 892.6 422.51 892.6 320.07"/><polygon class="cls-3" points="974.27 294.82 1064.26 294.82 1064.26 318.97 1008.29 318.97 1008.29 345.31 1061.15 345.31 1061.15 369.46 1008.29 369.46 1008.29 398.36 1066.27 398.36 1066.27 422.51 974.27 422.51 974.27 294.82"/><path class="cls-3" d="M197.05,322.77c-22.63,1.88-35,16.75-35,36,0,18.7,17.3,34.4,34.05,34.4l3.66,0H206s4.09,0,4.12-4V349H245c0,22.66-.08,73.53-.08,73.53l-54.52,0c-37.63,0-64.48-31.12-64.48-63.75,0-35.31,29.2-64.78,65.6-63.46l52.25.16,0,27.33H197.05"/><path class="cls-3" d="M399.22,322.77c-22.63,1.88-35,16.75-35,36,0,18.7,17.31,34.4,34.05,34.4l3.66,0h6.19s4.08,0,4.11-4V349h34.89c0,22.66-.08,73.53-.08,73.53l-54.46,0c-37.63,0-64.47-31.12-64.47-63.75,0-35.31,29.19-64.78,65.59-63.46l52.2.16,0,27.33H399.22"/></g></g></g><g id="BOUNDING_RECT_1250x703_" data-name="BOUNDING RECT (1250x703)"><rect class="cls-1" width="1250" height="703"/></g></svg>