<svg id="LOGO" xmlns="http://www.w3.org/2000/svg" viewBox="0 0 1250 703">
  <defs>
    <style>
      .cls-1 {
        fill: #86bc25;
      }
    </style>
  </defs>
  <g id="Artwork">
    <g>
      <path class="cls-1" d="M1017.86827,402.11527a22.46518,22.46518,0,1,1,22.46517,22.46521,22.48086,22.48086,0,0,1-22.46517-22.46521"/>
      <path d="M343.77813,341.13511q0,38.895-20.90046,59.92955-20.92281,21.05693-58.81189,21.05693H215V266.72052h52.53057q36.51434,0,56.39771,19.13454,19.88339,19.11219,19.84985,55.28005m-42.51623,1.453q0-21.3587-8.24841-31.67481-8.24842-10.32729-25.0582-10.32729H256.01855v87.04427h9.1202q18.67631,0,27.40532-11.0873,8.68431-11.065,8.71783-33.95487"/>
      <rect x="479.75407" y="266.07227" width="39.05144" height="156.02698"/>
      <path d="M647.00247,363.8909q0,28.43357-14.93208,44.32687-14.95448,15.92682-41.82329,15.91565-25.7847,0-40.99619-16.2733-15.25623-16.22859-15.24506-43.9692,0-28.3665,14.93208-44.05862,14.95441-15.69211,41.91268-15.69211,16.698,0,29.46181,7.26487a49.18677,49.18677,0,0,1,19.73809,20.81105q6.94081,13.6132,6.952,31.67479m-73.34162,0c0,9.96963,1.29651,17.52509,3.88951,22.7558,2.593,5.20835,6.97426,7.846,13.07678,7.846,6.08013,0,10.34965-2.593,12.83088-7.846,2.50357-5.20836,3.733-12.80852,3.733-22.7558,0-9.90257-1.25179-17.34627-3.80008-22.39814s-6.84014-7.57781-12.98734-7.57781q-8.98605,0-12.89794,7.5331c-2.526,5.00717-3.84483,12.49557-3.84483,22.44285"/>
      <rect x="662.49341" y="306.19668" width="39.05145" height="115.90255"/>
      <rect x="662.49341" y="266.07227" width="39.05145" height="26.10881"/>
      <path d="M780.69838,392.548q7.87962,0,18.86631-4.00126V417.718a76.22865,76.22865,0,0,1-15.04389,4.96246,83.53832,83.53832,0,0,1-16.74273,1.49768q-19.64868,0-28.38886-9.88022-8.65079-9.85787-8.67314-30.33361V336.17264H717.05812v-29.976h13.65795V276.62309l39.3644-6.84015V306.219h24.9241v29.976H770.0805v45.13159c.02234,7.44369,3.59887,11.22141,10.61788,11.22141"/>
      <path d="M871.118,392.548q7.87961,0,18.8663-4.00126V417.718a76.22865,76.22865,0,0,1-15.04389,4.96246,83.53821,83.53821,0,0,1-16.7427,1.49768c-13.09908,0-22.577-3.286-28.34414-9.88022q-8.71785-9.85787-8.69551-30.33361V336.17264H807.45538v-29.976h13.70267V276.176l39.36436-6.39308V306.219h24.94644v29.976H860.52241v45.13159c.00007,7.44369,3.53188,11.22141,10.59558,11.22141"/>
      <path d="M994.37486,317.84283q-13.915-13.64677-39.52086-13.65795-26.85768,0-41.35385,15.69211-14.485,15.69212-14.485,45.04217,0,28.43356,15.6474,43.85744,15.65862,15.39033,43.90218,15.40152a127.89332,127.89332,0,0,0,23.35936-1.85534,68.921,68.921,0,0,0,18.86631-6.57192l-6.01308-26.10881a88.104,88.104,0,0,1-12.62968,4.13538,83.24629,83.24629,0,0,1-18.93336,2.01182c-7.5331,0-13.45674-1.85534-17.81569-5.54366s-6.66135-8.76255-6.92958-15.245h69.8098V357.20722q.03336-25.78469-13.9039-39.36439m-55.10121,31.94305c.53646-6.34837,2.32478-10.99789,5.45425-13.97089a16.08655,16.08655,0,0,1,11.53438-4.44834q7.47726,0,11.93672,5.02952c2.973,3.353,4.51537,7.80135,4.62718,13.3897Z"/>
      <path d="M450.717,317.84283q-13.915-13.64677-39.52087-13.65795-26.85765,0-41.35385,15.69211-14.485,15.69212-14.485,45.04217,0,28.43356,15.64741,43.85744,15.62506,15.39033,43.90214,15.40152a127.89236,127.89236,0,0,0,23.35933-1.85534,68.92074,68.92074,0,0,0,18.86631-6.57192l-6.01308-26.10881a88.1037,88.1037,0,0,1-12.62969,4.13538,83.38618,83.38618,0,0,1-18.93337,2.01182c-7.53311,0-13.45676-1.85534-17.81569-5.54366s-6.66133-8.76255-6.92956-15.245h69.80977V357.20722q.03359-25.78469-13.90381-39.36439m-55.10122,31.94305c.53648-6.34837,2.36946-10.99789,5.45425-13.97089a16.08646,16.08646,0,0,1,11.53436-4.44834q7.47723,0,11.93673,5.02952c2.95065,3.353,4.51538,7.80135,4.62716,13.3897Z"/>
    </g>
  </g>
</svg>
