<?xml version="1.0" encoding="utf-8"?>
<!-- Generator: Adobe Illustrator 23.0.3, SVG Export Plug-In . SVG Version: 6.00 Build 0)  -->
<svg version="1.1" id="LOGO" xmlns="http://www.w3.org/2000/svg" xmlns:xlink="http://www.w3.org/1999/xlink" x="0px" y="0px"
	 viewBox="0 0 1250 703" style="enable-background:new 0 0 1250 703;" xml:space="preserve">
<style type="text/css">
	.st0{fill:#36499B;}
</style>
<g>
	<path class="st0" d="M316.6,394.2c-9.1,11.3-19.6,16.9-31.5,16.9c-16.2,0-24.3-6.9-24.3-20.6c0-8.3,3.8-15.5,11.2-21.6
		c7.5-6.1,17.2-9.1,29-9.1c3,0,8.2,0.7,15.6,2.2V394.2z M340,394.4v-47.3c0-18.9-4.3-32.8-13-41.4c-8.7-8.7-22.5-13-41.7-13
		c-7.2,0-14.6,1.3-22.5,3.9c-7.8,2.6-14,5.7-18.4,9.3l9.9,19.8c7.9-8.1,19.1-12.1,33.7-12.1c19.1,0,28.6,10.6,28.6,31.9
		c-6.2-2.1-11.8-3.1-16.8-3.1c-18.2,0-33.2,4.6-44.8,13.9c-11.7,9.3-17.6,20.6-17.6,34c0,11.2,3.8,20.6,11.4,28.1
		c7.6,7.5,16.6,11.3,27,11.3c19.3,0,33.7-5.9,43.1-17.8c2.1,6.2,5.5,10.7,10.2,13.4c4.7,2.7,11.8,4.1,21.4,4.1v-11.9
		C343.5,413.7,340,406,340,394.4"/>
	<path class="st0" d="M431.9,292.7c-16.9,0-29.6,7.9-38.2,23.7v-21.4h-23.4v132.2h23.4v-75.5c0-10.8,3.1-20.1,9.3-27.7
		c6.2-7.7,13.5-11.5,21.8-11.5c5.2,0,10.3,1.8,15.4,5.3l9.8-22.8C442.1,293.4,436.1,292.7,431.9,292.7"/>
	<path class="st0" d="M524,394.2c-9.1,11.3-19.6,16.9-31.5,16.9c-16.2,0-24.3-6.9-24.3-20.6c0-8.3,3.7-15.5,11.3-21.6
		c7.5-6.1,17.2-9.1,29-9.1c3,0,8.2,0.7,15.5,2.2V394.2z M547.4,394.4v-47.3c0-18.9-4.3-32.8-13-41.4c-8.7-8.7-22.6-13-41.7-13
		c-7.2,0-14.6,1.3-22.5,3.9c-7.9,2.6-14,5.7-18.4,9.3l9.9,19.8c7.9-8.1,19.1-12.1,33.8-12.1c19,0,28.6,10.6,28.6,31.9
		c-6.2-2.1-11.8-3.1-16.8-3.1c-18.2,0-33.1,4.6-44.8,13.9c-11.8,9.3-17.6,20.6-17.6,34c0,11.2,3.8,20.6,11.4,28.1
		c7.6,7.5,16.6,11.3,26.9,11.3c19.3,0,33.7-5.9,43.1-17.8c2.1,6.2,5.4,10.7,10.2,13.4c4.7,2.7,11.9,4.1,21.4,4.1v-11.9
		C550.9,413.7,547.4,406,547.4,394.4"/>
	<path class="st0" d="M635.8,292.7c-7.4,0-14.6,1.6-21.6,4.9c-6.9,3.2-12,7.3-15.1,12.1v-68.9h-23.4v186.4h23.4V329
		c3.1-4.5,7.4-8.3,13.2-11.6c5.7-3.3,11.4-5,17.1-5c8.8,0,15.7,2.8,20.5,8.5c4.9,5.7,7.3,13.4,7.3,23.3v82.9h23.4v-83
		c0-15.9-3.9-28.5-11.9-37.7C660.7,297.3,649.8,292.7,635.8,292.7"/>
	<path class="st0" d="M753.5,353.2l-16.8-7.6c-9.6-4.4-14.4-10.8-14.4-19.2c0-4,1.9-7.4,5.7-10c3.8-2.6,8.5-3.9,14.1-3.9
		c9.4,0,18.7,3.7,28,11l6.7-21.6c-14.7-6.1-26.8-9.1-36.4-9.1c-12.8,0-23.1,3-31,9.1c-7.9,6.1-11.8,14.6-11.8,25.4
		c0,4.2,0.7,8.1,2,11.8c1.3,3.7,3.4,7.1,6.2,10.4c2.7,3.3,6,6.2,9.7,8.7c3.7,2.5,11,6.3,21.7,11.2c14,6.2,20.9,13.7,20.9,22.4
		c0,12.2-7.2,18.2-21.7,18.2c-8,0-18.4-4.3-31.5-13l-8.3,22.3c12.3,6.9,25.4,10.4,39.3,10.4c14.7,0,26.2-3.4,34.5-10.1
		c8.3-6.7,12.5-16,12.5-27.8c0-9.1-2.3-16.6-7-22.6C771.3,363.3,763.8,357.9,753.5,353.2"/>
	<path class="st0" d="M878.1,397.2c-6.2,8.9-14.7,13.3-25.6,13.3c-23.3,0-35-16.5-35-49.6c0-15.3,3.2-27.3,9.5-36
		c6.3-8.7,14.8-13.1,25.5-13.1c23.3,0,34.9,16.3,34.9,49C887.4,376.2,884.3,388.3,878.1,397.2 M852.5,292.7
		c-17.9,0-32.4,6.3-43.4,18.8c-10.9,12.5-16.5,29-16.5,49.4c0,21,5.3,37.8,15.8,50.2c10.6,12.4,25.2,18.6,44.1,18.6
		c18.4,0,33-6.2,43.7-18.4c10.7-12.3,16-29.1,16-50.4c0-21.4-5.2-38.1-15.7-50.1C886,298.7,871.4,292.7,852.5,292.7"/>
	<path class="st0" d="M951.8,255.2c-8.3,9.6-12.5,22.8-12.5,39.7h-19.2v19.7h19.2v112.5h23.4V314.7h26.8v-19.7h-26.8
		c-0.4-2.4-0.6-4.7-0.6-6.9c0-8.3,2.3-15.1,7-20.5c4.6-5.4,10.5-8.1,17.7-8.1c4.1,0,8.6,0.8,13.3,2.5l6.5-17.3
		c-7.8-2.5-15.2-3.7-22-3.7C971.1,240.8,960.1,245.6,951.8,255.2"/>
	<path class="st0" d="M1071.4,410c-8.4,0-14.4-2.4-18.2-7c-3.7-4.7-5.6-12.6-5.6-23.7v-65.7h36.4v-18.6h-36.4v-36.7l-23.4,9v27.6
		H1009v18.6h15.2v75.1c0,11.8,3.6,21.6,10.8,29.4c7.2,7.8,16.1,11.7,26.5,11.7c11.6,0,22.3-1.2,32-3.7l-3.5-20.6
		C1083.6,408.4,1077.4,410,1071.4,410"/>
	<path class="st0" d="M125,361.3c0,38.1,31.5,69,70.3,69c11.2,0,21.7-2.6,31.1-7.2v-2.3l-5.6-19.2c-7.4,4.7-16.1,7.5-25.5,7.5
		c-26.4,0-47.7-21.4-47.7-47.7c0-26.4,21.4-47.7,47.7-47.7c9.5,0,18.3,2.8,25.7,7.6l5.4-20.4v-1.3c-9.4-4.6-19.9-7.2-31.1-7.2
		C156.5,292.3,125,323.1,125,361.3"/>
	<path class="st0" d="M1121.6,427.3c-1.7,1.7-3.9,2.6-6.3,2.6s-4.6-0.9-6.3-2.6c-1.7-1.8-2.6-3.9-2.6-6.3c0-2.5,0.9-4.6,2.6-6.3
		c1.7-1.7,3.9-2.6,6.3-2.6s4.6,0.9,6.3,2.6c1.7,1.7,2.6,3.9,2.6,6.3C1124.3,423.4,1123.4,425.5,1121.6,427.3 M1122.9,413.4
		c-2.1-2.1-4.6-3.1-7.6-3.1c-2.9,0-5.5,1-7.6,3.1c-2.1,2.1-3.1,4.6-3.1,7.6c0,2.9,1,5.5,3.1,7.6c2.1,2.1,4.6,3.1,7.6,3.1
		c3,0,5.5-1,7.6-3.1c2.1-2.1,3.1-4.6,3.1-7.6C1126,418,1125,415.4,1122.9,413.4"/>
	<path class="st0" d="M1114.6,420.2c-0.7,0-1.1,0-1.2,0v-4.4l0.7,0h0.8c1.9,0,2.9,0.7,2.9,2.2c0,0.9-0.2,1.5-0.6,1.8
		C1116.7,420.1,1115.9,420.2,1114.6,420.2 M1119.6,417.8c0-2.4-1.6-3.7-4.8-3.7h-3.4v13.2h1.9v-5.7h1.9l3.3,5.7h2l-3.6-5.9
		C1118.8,420.7,1119.6,419.5,1119.6,417.8"/>
</g>
</svg>
