<svg id="LOGO" xmlns="http://www.w3.org/2000/svg" viewBox="0 0 1250 703">
  <defs>
    <style>
      .cls-1 {
        fill: gray;
      }

      .cls-2 {
        fill: #0076ce;
      }
    </style>
  </defs>
  <g>
    <path class="cls-1" d="M1128,370.18257c0-12.1175-6.73723-17.50391-20.20577-20.1998-13.46263-2.69023-21.53911-4.04115-21.53911-13.46286,0-6.73138,5.38622-10.77253,14.81358-10.77253,12.11772,0,16.15887,5.38641,16.15887,12.1178l1.345,1.34506h5.38631l1.35092-1.34506c0-13.46277-10.77838-18.85483-24.24107-18.85483-14.81358,0-22.89013,8.0823-22.89013,17.50956,0,10.77263,8.07655,16.15875,21.53922,18.849,13.46863,2.69618,20.19991,4.04115,20.19991,14.81368,0,6.73138-4.0353,12.11759-17.50383,12.11759-12.1176,0-17.50391-6.737-17.50391-14.81348l-1.345-1.34526h-5.38634l-1.34506,1.34526c0,12.1176,9.42161,21.54487,25.58036,21.54487,17.50383,0,25.58613-8.07645,25.58613-18.849m-57.89787-13.46277,1.33931-1.35091v-4.0352c0-18.85483-10.77253-32.32334-29.6215-32.32334s-29.62141,13.46851-29.62141,32.32334v2.69023c0,18.84888,9.42736,35.00763,30.97242,35.00763,18.849,0,25.58026-12.1176,26.93118-20.1998l-1.35092-1.34507H1063.365l-1.34507,1.34507c-2.69608,8.0822-8.0823,13.46841-18.849,13.46841-17.50976,0-22.896-16.15874-22.896-24.23509l1.35091-1.34527Zm-8.0822-6.737h-40.394l-1.35091-1.34526c0-9.42727,5.38621-22.89013,21.545-22.89013,16.15886,0,21.54506,13.46286,21.54506,22.89013Zm-59.24886,36.35854V321.70058l-1.34507-1.34516h-5.38632l-1.34506,1.34516v64.64073l1.34506,1.34527h5.38632Zm0-78.10349v-8.07645l-1.34507-1.34516h-5.38632l-1.34506,1.34516v8.07645l1.34506,1.35092h5.38632Zm-51.16062,74.06234c-13.46851,0-21.55081-9.42736-21.55081-28.27624,0-18.85482,8.0823-28.27654,21.55081-28.27654,13.45691,0,21.53911,9.42172,21.53911,28.27654,0,18.84888-8.0822,28.27624-21.53911,28.27624m21.53911-4.04114c0,17.50391-4.041,30.97242-20.1998,30.97242-12.11769,0-16.15882-5.38622-17.50379-12.1176l-1.34518-1.35091h-5.38632l-1.34506,1.35091c1.34506,10.77253,9.42153,18.849,25.58035,18.849,17.50966,0,28.27635-10.77253,28.27635-37.7038V321.70058l-1.34507-1.34516h-4.04115l-1.34517,1.34516-1.34516,8.08795h-1.3508c-2.69025-5.38612-9.42163-10.77818-21.54508-10.77818-18.84887,0-28.27634,14.81368-28.27634,35.01357,0,20.194,9.42747,35.00763,28.27634,35.00763,12.12345,0,18.85483-5.38047,21.54508-10.77253ZM885.6303,325.74738c13.46267,0,22.88438,10.77253,22.88438,28.27654,0,17.50391-9.42171,28.27624-22.88438,28.27624-13.46851,0-22.89585-10.77233-22.89585-28.27624,0-17.504,9.42734-28.27654,22.89585-28.27654m0,63.28417c17.50381,0,30.96668-12.1176,30.96668-35.00763,0-22.89013-13.46287-35.01357-30.96668-35.01357-17.50966,0-30.97242,12.12344-30.97242,35.01357,0,22.89,13.46276,35.00763,30.97242,35.00763m-40.39978-2.69024V294.7752L843.88535,293.43h-5.3861l-1.351,1.34521v91.56611l1.351,1.34527h5.3861Zm-48.47039-60.59393c13.46266,0,22.89013,10.77253,22.89013,28.27654,0,17.50391-9.42747,28.27624-22.89013,28.27624-13.46851,0-22.896-10.77233-22.896-28.27624,0-17.504,9.42746-28.27654,22.896-28.27654m0,63.28417c17.50381,0,30.97244-12.1176,30.97244-35.00763,0-22.89013-13.46863-35.01357-30.97244-35.01357-17.50389,0-30.97241,12.12344-30.97241,35.01357,0,22.89,13.46852,35.00763,30.97241,35.00763m-39.04887-2.69024V345.94162c0-17.50391-9.42162-26.93127-24.23529-26.93127-9.42727,0-17.50955,4.047-21.545,10.77818h-1.35092l-1.33922-8.08795-1.351-1.34516h-4.04115l-1.34517,1.34516v64.64073l1.34517,1.34527h5.39216l1.33922-1.34527V349.98277c0-14.81367,6.73725-24.23539,21.545-24.23539,10.77253,0,17.50391,6.73148,17.50391,20.19424v40.39969l1.35092,1.34527h5.38621Zm-68.67613,0V345.94162c0-17.50391-9.42745-26.93127-24.23519-26.93127-9.42745,0-17.50391,4.047-21.545,10.77818h-1.34508V294.7752L640.56465,293.43h-5.38622l-1.35091,1.34521v91.56611l1.35091,1.34527h5.38622l1.34516-1.34527V349.98277c0-14.81367,6.73713-24.23539,21.545-24.23539,10.77253,0,17.50383,6.73148,17.50383,20.19424v40.39969l1.34515,1.34527h5.39206Zm-115.7957-32.31739c0-18.85482,9.42162-28.27654,22.89013-28.27654,13.46266,0,18.849,8.07665,20.19414,16.1531l1.345,1.35091h5.39216l1.34507-1.35091c-1.34507-13.46277-12.12334-22.89013-28.27634-22.89013-17.50391,0-30.96657,10.77818-30.96657,35.01357,0,24.2351,13.46266,35.00763,30.96657,35.00763,16.153,0,26.93127-9.42727,28.27634-22.89013l-1.34507-1.345h-5.39216l-1.345,1.345c-1.34516,8.07645-6.73148,16.15874-20.19414,16.15874-13.46851,0-22.89013-9.42736-22.89013-28.27624m-14.81357,2.69588,1.35091-1.35091v-4.0352c0-18.85483-10.77838-32.32334-29.6331-32.32334-18.84323,0-29.62151,13.46851-29.62151,32.32334v2.69023c0,18.84888,9.42736,35.00763,30.97242,35.00763,18.849,0,25.58027-12.1176,26.93128-20.1998l-1.351-1.34507h-5.38038l-1.35091,1.34507c-2.69023,8.0822-8.07645,13.46841-18.849,13.46841-17.50391,0-22.89011-16.15874-22.89011-24.23509l1.34505-1.34527Zm-8.0823-6.737h-40.394l-1.34505-1.34526c0-9.42727,5.3862-22.89013,21.5392-22.89013,16.1645,0,21.5508,13.46286,21.5508,22.89013Zm-36.28262-51.16656v-4.041L512.71578,293.43h-70.0212l-1.351,1.34521v4.041l1.351,1.34516H472.316l1.34517,1.34507v84.83487l1.35091,1.34527h5.38622l1.34516-1.34527V301.50644l1.34507-1.34507h29.62726Z"/>
    <path class="cls-2" d="M441.34357,368.95445V387.687H380.53744V293.43H401.946v75.52448ZM160.20829,387.68687a47.1481,47.1481,0,0,0,45.62316-35.26868l53.32426,41.6615,53.29086-41.63534V387.687h60.806V368.95445H333.85506V293.43H312.44657v35.24254l-51.1175,39.93743-11.43223-8.9318L274.369,340.55848l26.64534-20.81766-15.21321-11.886-51.1175,39.93742-11.43213-8.9318,51.1175-39.93742-15.2133-11.88587-53.32426,41.6615A47.148,47.148,0,0,0,160.20829,293.43H122v94.2569Zm-16.79981-18.73242v-56.792h16.79981c14.20473,0,25.71991,12.71337,25.71991,28.396,0,15.68271-11.51518,28.39607-25.71991,28.39607Z"/>
  </g>
</svg>
