<svg id="LOGO" xmlns="http://www.w3.org/2000/svg" xmlns:xlink="http://www.w3.org/1999/xlink" viewBox="0 0 1250 703">
  <defs>
    <style>
      .cls-1, .cls-2, .cls-5 {
        fill: #5387c6;
      }

      .cls-1, .cls-4 {
        clip-rule: evenodd;
      }

      .cls-3, .cls-4, .cls-9 {
        fill: #5a5f6a;
      }

      .cls-5, .cls-9 {
        fill-rule: evenodd;
      }

      .cls-6 {
        clip-path: url(#clip-path);
      }

      .cls-7 {
        clip-path: url(#clip-path-2);
      }

      .cls-8 {
        clip-path: url(#clip-path-3);
      }

      .cls-10 {
        clip-path: url(#clip-path-5);
      }

      .cls-11 {
        clip-path: url(#clip-path-6);
      }

      .cls-12 {
        clip-path: url(#clip-path-7);
      }

      .cls-13 {
        clip-path: url(#clip-path-9);
      }

      .cls-14 {
        clip-path: url(#clip-path-10);
      }

      .cls-15 {
        clip-path: url(#clip-path-11);
      }
    </style>
    <clipPath id="clip-path">
      <path class="cls-1" d="M277.18683,252.58476,335.27888,219.153a10.20332,10.20332,0,0,0-5.11654-19.0446,10.00718,10.00718,0,0,0-5.11128,1.39915L266.9679,234.909a10.174,10.174,0,0,0-4.77685,6.20159,10.03313,10.03313,0,0,0,1.01172,7.74785,10.25849,10.25849,0,0,0,13.98406,3.72628Z"/>
    </clipPath>
    <clipPath id="clip-path-2">
      <rect class="cls-2" x="-137.57201" y="41.878" width="834.32239" height="803.24505"/>
    </clipPath>
    <clipPath id="clip-path-3">
      <rect class="cls-2" x="-137.47564" y="41.84713" width="834.31877" height="803.18617"/>
    </clipPath>
    <clipPath id="clip-path-5">
      <path class="cls-4" d="M243.803,456.67133a9.97986,9.97986,0,0,0,3.01814-7.18454,10.25557,10.25557,0,0,0-10.33067-10.15072H168.85508a10.15329,10.15329,0,1,0,0,20.30416h67.63535A10.35784,10.35784,0,0,0,243.803,456.67133Zm-78.69389-89.58484a10.2014,10.2014,0,1,0,17.67135-10.19756l-33.44786-58.08768a10.206,10.206,0,1,0-17.65735,10.24032ZM193.33529,423.442a10.19539,10.19539,0,0,0,5.11655-19.044l-58.10019-33.46322a10.21943,10.21943,0,0,0-14.984,11.549,10.06154,10.06154,0,0,0,4.75772,6.13775l58.08693,33.45584A10.026,10.026,0,0,0,193.33529,423.442Zm-9.62266-105.92616a10.25256,10.25256,0,0,0,10.14169-10.32554V239.52854a10.152,10.152,0,1,0-20.3019,0v67.66171A10.262,10.262,0,0,0,183.71263,317.51579ZM325.984,264.5454h67.62948a10.15138,10.15138,0,1,0,.02063-20.29964H325.984a10.151,10.151,0,1,0,0,20.29964ZM431.4794,314.36169,373.41385,280.922a10.28019,10.28019,0,0,0-14.00108,3.74088,10.21451,10.21451,0,0,0,3.76152,13.94582l58.08467,33.425a10.27542,10.27542,0,0,0,14.00454-3.73637A10.20709,10.20709,0,0,0,431.4794,314.36169ZM396.51992,336.72a10.22081,10.22081,0,0,0-17.68822,10.24619l33.44409,58.14792a10.28007,10.28007,0,0,0,8.86256,5.08929,10.70821,10.70821,0,0,0,5.08553-1.344,10.3622,10.3622,0,0,0,4.75922-6.29946,10.14184,10.14184,0,0,0-1.02933-7.692Zm-48.876,93.39787a10.3262,10.3262,0,0,0-5.07528-1.37641,10.219,10.219,0,0,0-8.84855,5.154L300.2554,491.94778a10.21731,10.21731,0,1,0,17.67934,10.24755l33.445-58.08754A10.25383,10.25383,0,0,0,347.644,430.11786Zm-47.46279,23.1818a10.21394,10.21394,0,0,0-13.98558-3.75851l-58.08467,33.42648a10.20606,10.20606,0,1,0,10.22044,17.66909L296.416,467.20136a10.14107,10.14107,0,0,0,3.76513-13.9017Zm78.60942-66.934a10.25711,10.25711,0,0,0-10.14546,10.33006v67.66472a10.2158,10.2158,0,0,0,10.14546,10.28443,10.06721,10.06721,0,0,0,7.19343-3.01015,10.24854,10.24854,0,0,0,2.94239-7.27428l.01912-67.66472A10.269,10.269,0,0,0,378.79059,386.36568ZM213.97327,272.91678a10.08007,10.08007,0,0,0,5.0649,1.341A10.19454,10.19454,0,0,0,227.9,269.173l33.45659-58.11856a10.22292,10.22292,0,1,0-17.69694-10.23956l-33.41986,58.1178A10.24822,10.24822,0,0,0,213.97327,272.91678Z"/>
    </clipPath>
    <clipPath id="clip-path-6">
      <rect class="cls-3" x="-137.57201" y="41.878" width="834.32239" height="803.24505"/>
    </clipPath>
    <clipPath id="clip-path-7">
      <rect class="cls-3" x="-137.47564" y="41.84713" width="834.31877" height="803.18617"/>
    </clipPath>
    <clipPath id="clip-path-9">
      <path class="cls-4" d="M1112.16154,357.75053a48.41155,48.41155,0,0,0-2.32488-15.53545,33.04111,33.04111,0,0,0-6.57746-11.64006,28.51494,28.51494,0,0,0-10.32253-7.30817,37.01248,37.01248,0,0,0-27.03,0,28.8697,28.8697,0,0,0-10.35641,7.30817,32.78194,32.78194,0,0,0-6.6098,11.64006,53.07394,53.07394,0,0,0,0,31.043,32.8002,32.8002,0,0,0,6.6098,11.60182,28.49124,28.49124,0,0,0,10.35641,7.27007,37.39446,37.39446,0,0,0,27.03,0,28.14412,28.14412,0,0,0,10.32253-7.27007,33.06008,33.06008,0,0,0,6.57746-11.60182A48.17836,48.17836,0,0,0,1112.16154,357.75053Zm12.83846,0a55.01652,55.01652,0,0,1-3.28931,19.37194,44.62172,44.62172,0,0,1-9.29049,15.181,41.528,41.528,0,0,1-14.41923,9.86674,51.10849,51.10849,0,0,1-37.18951,0,41.61825,41.61825,0,0,1-14.384-9.86674,44.67576,44.67576,0,0,1-9.29485-15.181,58.70113,58.70113,0,0,1,0-38.74811,45.00632,45.00632,0,0,1,9.29485-15.20749,41.63751,41.63751,0,0,1,14.384-9.93013,50.59657,50.59657,0,0,1,37.18951,0,41.54632,41.54632,0,0,1,14.41923,9.93013,44.95159,44.95159,0,0,1,9.29049,15.20749A55.057,55.057,0,0,1,1125,357.75053ZM929.6096,310.74442a5.52753,5.52753,0,0,1,2.48512.42342,6.555,6.555,0,0,1,1.84106,1.73809l53.54678,70.80556q-.19628-1.70708-.25884-3.313-.0684-1.60341-.06911-3.11435V310.74442h10.9697v93.94912h-6.32295a5.34438,5.34438,0,0,1-2.48507-.5234,6.31085,6.31085,0,0,1-1.96458-1.77935l-53.485-70.73208c.08959,1.09543.15585,2.16166.2,3.213.04111,1.04846.06174,2.00566.06174,2.87915v66.94271H923.16167V310.74442Zm-62.16511,0h12.51357v93.94912H867.44449Zm-93.97712,59.98584a25.17248,25.17248,0,0,1,1.5851,3.31446q.67263,1.73147,1.31754,3.50268.64618-1.83739,1.35427-3.50268.70811-1.67636,1.6101-3.38358l31.29148-57.75521a3.80006,3.80006,0,0,1,1.74095-1.83807,8.002,8.002,0,0,1,2.58221-.32344h9.22559v93.94912H813.20792V335.65693c0-.9161.01777-1.89845.06625-2.95127.04111-1.047.10285-2.12326.18973-3.20846l-31.67529,58.73742a4.965,4.965,0,0,1-4.51575,2.94841H775.47a4.97424,4.97424,0,0,1-4.52012-2.94841l-32.381-58.93753c.128,1.13669.225,2.25727.28822,3.341.06759,1.09544.09846,2.10278.09846,3.01888v69.03661h-10.968V310.74442h9.22273a7.97661,7.97661,0,0,1,2.58206.32344,3.801,3.801,0,0,1,1.74245,1.83807Zm-93.84778-12.97973a48.37232,48.37232,0,0,0-2.32036-15.53545,33.08734,33.08734,0,0,0-6.57741-11.64006,28.57259,28.57259,0,0,0-10.324-7.30817,37.01255,37.01255,0,0,0-27.03005,0,28.85172,28.85172,0,0,0-10.35506,7.30817A32.76909,32.76909,0,0,0,616.4,342.21508a53.10678,53.10678,0,0,0,0,31.043,32.78735,32.78735,0,0,0,6.61265,11.60182A28.47367,28.47367,0,0,0,633.36772,392.13a37.39452,37.39452,0,0,0,27.03005,0,28.20031,28.20031,0,0,0,10.324-7.27007,33.10657,33.10657,0,0,0,6.57741-11.60182A48.13947,48.13947,0,0,0,679.61959,357.75053Zm12.84,0a55.08081,55.08081,0,0,1-3.288,19.37194,44.57235,44.57235,0,0,1-9.29032,15.181,41.54693,41.54693,0,0,1-14.42075,9.86674,51.1045,51.1045,0,0,1-37.188,0,41.63773,41.63773,0,0,1-14.38851-9.86674,44.60589,44.60589,0,0,1-9.28882-15.181,58.69844,58.69844,0,0,1,0-38.74811,44.93557,44.93557,0,0,1,9.28882-15.20749,41.65689,41.65689,0,0,1,14.38851-9.93013,50.59262,50.59262,0,0,1,37.188,0,41.56522,41.56522,0,0,1,14.42075,9.93013,44.90157,44.90157,0,0,1,9.29032,15.20749A55.1214,55.1214,0,0,1,692.45959,357.75053Zm-134.16549,0a47.86368,47.86368,0,0,0-2.32187-15.47356,32.71551,32.71551,0,0,0-6.57817-11.53587,28.03838,28.03838,0,0,0-10.324-7.21255,35.14457,35.14457,0,0,0-13.4819-2.49247H503.59V394.393h21.99812a35.115,35.115,0,0,0,13.4819-2.48358,28.29115,28.29115,0,0,0,10.324-7.18033,32.42354,32.42354,0,0,0,6.57817-11.50635A47.84874,47.84874,0,0,0,558.2941,357.75053Zm12.83925,0a53.72771,53.72771,0,0,1-3.28856,19.21007,42.82456,42.82456,0,0,1-9.28974,14.818,41.42092,41.42092,0,0,1-14.38911,9.53291,49.15955,49.15955,0,0,1-18.57782,3.38207H491.00944V310.74442h34.57868a49.3582,49.3582,0,0,1,18.57782,3.37168,41.24678,41.24678,0,0,1,14.38911,9.57854,43.04254,43.04254,0,0,1,9.28974,14.84581A53.72189,53.72189,0,0,1,571.13335,357.75053Z"/>
    </clipPath>
    <clipPath id="clip-path-10">
      <rect class="cls-3" x="-50.37002" y="-742.41639" width="1718.02293" height="1654.03509"/>
    </clipPath>
    <clipPath id="clip-path-11">
      <rect class="cls-3" x="-50.17668" y="-742.48039" width="1718.02232" height="1653.90936"/>
    </clipPath>
  </defs>
  <g>
    <g>
      <g>
        <path class="cls-5" d="M277.18683,252.58476,335.27888,219.153a10.20332,10.20332,0,0,0-5.11654-19.0446,10.00718,10.00718,0,0,0-5.11128,1.39915L266.9679,234.909a10.174,10.174,0,0,0-4.77685,6.20159,10.03313,10.03313,0,0,0,1.01172,7.74785,10.25849,10.25849,0,0,0,13.98406,3.72628Z"/>
        <g class="cls-6">
          <g>
            <rect class="cls-2" x="-137.57201" y="41.878" width="834.32239" height="803.24505"/>
            <g class="cls-7">
              <g>
                <rect class="cls-2" x="-137.47564" y="41.84713" width="834.31877" height="803.18617"/>
                <g class="cls-8">
                  <g>
                    <rect class="cls-2" x="-137.57201" y="41.878" width="834.32239" height="803.24505"/>
                    <g class="cls-7">
                      <rect class="cls-2" x="261.69114" y="199.94956" width="78.67854" height="54.06597"/>
                    </g>
                  </g>
                </g>
              </g>
            </g>
          </g>
        </g>
      </g>
      <g>
        <path class="cls-9" d="M243.803,456.67133a9.97986,9.97986,0,0,0,3.01814-7.18454,10.25557,10.25557,0,0,0-10.33067-10.15072H168.85508a10.15329,10.15329,0,1,0,0,20.30416h67.63535A10.35784,10.35784,0,0,0,243.803,456.67133Zm-78.69389-89.58484a10.2014,10.2014,0,1,0,17.67135-10.19756l-33.44786-58.08768a10.206,10.206,0,1,0-17.65735,10.24032ZM193.33529,423.442a10.19539,10.19539,0,0,0,5.11655-19.044l-58.10019-33.46322a10.21943,10.21943,0,0,0-14.984,11.549,10.06154,10.06154,0,0,0,4.75772,6.13775l58.08693,33.45584A10.026,10.026,0,0,0,193.33529,423.442Zm-9.62266-105.92616a10.25256,10.25256,0,0,0,10.14169-10.32554V239.52854a10.152,10.152,0,1,0-20.3019,0v67.66171A10.262,10.262,0,0,0,183.71263,317.51579ZM325.984,264.5454h67.62948a10.15138,10.15138,0,1,0,.02063-20.29964H325.984a10.151,10.151,0,1,0,0,20.29964ZM431.4794,314.36169,373.41385,280.922a10.28019,10.28019,0,0,0-14.00108,3.74088,10.21451,10.21451,0,0,0,3.76152,13.94582l58.08467,33.425a10.27542,10.27542,0,0,0,14.00454-3.73637A10.20709,10.20709,0,0,0,431.4794,314.36169ZM396.51992,336.72a10.22081,10.22081,0,0,0-17.68822,10.24619l33.44409,58.14792a10.28007,10.28007,0,0,0,8.86256,5.08929,10.70821,10.70821,0,0,0,5.08553-1.344,10.3622,10.3622,0,0,0,4.75922-6.29946,10.14184,10.14184,0,0,0-1.02933-7.692Zm-48.876,93.39787a10.3262,10.3262,0,0,0-5.07528-1.37641,10.219,10.219,0,0,0-8.84855,5.154L300.2554,491.94778a10.21731,10.21731,0,1,0,17.67934,10.24755l33.445-58.08754A10.25383,10.25383,0,0,0,347.644,430.11786Zm-47.46279,23.1818a10.21394,10.21394,0,0,0-13.98558-3.75851l-58.08467,33.42648a10.20606,10.20606,0,1,0,10.22044,17.66909L296.416,467.20136a10.14107,10.14107,0,0,0,3.76513-13.9017Zm78.60942-66.934a10.25711,10.25711,0,0,0-10.14546,10.33006v67.66472a10.2158,10.2158,0,0,0,10.14546,10.28443,10.06721,10.06721,0,0,0,7.19343-3.01015,10.24854,10.24854,0,0,0,2.94239-7.27428l.01912-67.66472A10.269,10.269,0,0,0,378.79059,386.36568ZM213.97327,272.91678a10.08007,10.08007,0,0,0,5.0649,1.341A10.19454,10.19454,0,0,0,227.9,269.173l33.45659-58.11856a10.22292,10.22292,0,1,0-17.69694-10.23956l-33.41986,58.1178A10.24822,10.24822,0,0,0,213.97327,272.91678Z"/>
        <g class="cls-10">
          <g>
            <rect class="cls-3" x="-137.57201" y="41.878" width="834.32239" height="803.24505"/>
            <g class="cls-11">
              <g>
                <rect class="cls-3" x="-137.47564" y="41.84713" width="834.31877" height="803.18617"/>
                <g class="cls-12">
                  <g>
                    <rect class="cls-3" x="-137.57201" y="41.878" width="834.32239" height="803.24505"/>
                    <g class="cls-11">
                      <rect class="cls-3" x="124.84347" y="195.66027" width="311.91781" height="311.7302"/>
                    </g>
                  </g>
                </g>
              </g>
            </g>
          </g>
        </g>
      </g>
    </g>
    <g>
      <path class="cls-9" d="M1112.16154,357.75053a48.41155,48.41155,0,0,0-2.32488-15.53545,33.04111,33.04111,0,0,0-6.57746-11.64006,28.51494,28.51494,0,0,0-10.32253-7.30817,37.01248,37.01248,0,0,0-27.03,0,28.8697,28.8697,0,0,0-10.35641,7.30817,32.78194,32.78194,0,0,0-6.6098,11.64006,53.07394,53.07394,0,0,0,0,31.043,32.8002,32.8002,0,0,0,6.6098,11.60182,28.49124,28.49124,0,0,0,10.35641,7.27007,37.39446,37.39446,0,0,0,27.03,0,28.14412,28.14412,0,0,0,10.32253-7.27007,33.06008,33.06008,0,0,0,6.57746-11.60182A48.17836,48.17836,0,0,0,1112.16154,357.75053Zm12.83846,0a55.01652,55.01652,0,0,1-3.28931,19.37194,44.62172,44.62172,0,0,1-9.29049,15.181,41.528,41.528,0,0,1-14.41923,9.86674,51.10849,51.10849,0,0,1-37.18951,0,41.61825,41.61825,0,0,1-14.384-9.86674,44.67576,44.67576,0,0,1-9.29485-15.181,58.70113,58.70113,0,0,1,0-38.74811,45.00632,45.00632,0,0,1,9.29485-15.20749,41.63751,41.63751,0,0,1,14.384-9.93013,50.59657,50.59657,0,0,1,37.18951,0,41.54632,41.54632,0,0,1,14.41923,9.93013,44.95159,44.95159,0,0,1,9.29049,15.20749A55.057,55.057,0,0,1,1125,357.75053ZM929.6096,310.74442a5.52753,5.52753,0,0,1,2.48512.42342,6.555,6.555,0,0,1,1.84106,1.73809l53.54678,70.80556q-.19628-1.70708-.25884-3.313-.0684-1.60341-.06911-3.11435V310.74442h10.9697v93.94912h-6.32295a5.34438,5.34438,0,0,1-2.48507-.5234,6.31085,6.31085,0,0,1-1.96458-1.77935l-53.485-70.73208c.08959,1.09543.15585,2.16166.2,3.213.04111,1.04846.06174,2.00566.06174,2.87915v66.94271H923.16167V310.74442Zm-62.16511,0h12.51357v93.94912H867.44449Zm-93.97712,59.98584a25.17248,25.17248,0,0,1,1.5851,3.31446q.67263,1.73147,1.31754,3.50268.64618-1.83739,1.35427-3.50268.70811-1.67636,1.6101-3.38358l31.29148-57.75521a3.80006,3.80006,0,0,1,1.74095-1.83807,8.002,8.002,0,0,1,2.58221-.32344h9.22559v93.94912H813.20792V335.65693c0-.9161.01777-1.89845.06625-2.95127.04111-1.047.10285-2.12326.18973-3.20846l-31.67529,58.73742a4.965,4.965,0,0,1-4.51575,2.94841H775.47a4.97424,4.97424,0,0,1-4.52012-2.94841l-32.381-58.93753c.128,1.13669.225,2.25727.28822,3.341.06759,1.09544.09846,2.10278.09846,3.01888v69.03661h-10.968V310.74442h9.22273a7.97661,7.97661,0,0,1,2.58206.32344,3.801,3.801,0,0,1,1.74245,1.83807Zm-93.84778-12.97973a48.37232,48.37232,0,0,0-2.32036-15.53545,33.08734,33.08734,0,0,0-6.57741-11.64006,28.57259,28.57259,0,0,0-10.324-7.30817,37.01255,37.01255,0,0,0-27.03005,0,28.85172,28.85172,0,0,0-10.35506,7.30817A32.76909,32.76909,0,0,0,616.4,342.21508a53.10678,53.10678,0,0,0,0,31.043,32.78735,32.78735,0,0,0,6.61265,11.60182A28.47367,28.47367,0,0,0,633.36772,392.13a37.39452,37.39452,0,0,0,27.03005,0,28.20031,28.20031,0,0,0,10.324-7.27007,33.10657,33.10657,0,0,0,6.57741-11.60182A48.13947,48.13947,0,0,0,679.61959,357.75053Zm12.84,0a55.08081,55.08081,0,0,1-3.288,19.37194,44.57235,44.57235,0,0,1-9.29032,15.181,41.54693,41.54693,0,0,1-14.42075,9.86674,51.1045,51.1045,0,0,1-37.188,0,41.63773,41.63773,0,0,1-14.38851-9.86674,44.60589,44.60589,0,0,1-9.28882-15.181,58.69844,58.69844,0,0,1,0-38.74811,44.93557,44.93557,0,0,1,9.28882-15.20749,41.65689,41.65689,0,0,1,14.38851-9.93013,50.59262,50.59262,0,0,1,37.188,0,41.56522,41.56522,0,0,1,14.42075,9.93013,44.90157,44.90157,0,0,1,9.29032,15.20749A55.1214,55.1214,0,0,1,692.45959,357.75053Zm-134.16549,0a47.86368,47.86368,0,0,0-2.32187-15.47356,32.71551,32.71551,0,0,0-6.57817-11.53587,28.03838,28.03838,0,0,0-10.324-7.21255,35.14457,35.14457,0,0,0-13.4819-2.49247H503.59V394.393h21.99812a35.115,35.115,0,0,0,13.4819-2.48358,28.29115,28.29115,0,0,0,10.324-7.18033,32.42354,32.42354,0,0,0,6.57817-11.50635A47.84874,47.84874,0,0,0,558.2941,357.75053Zm12.83925,0a53.72771,53.72771,0,0,1-3.28856,19.21007,42.82456,42.82456,0,0,1-9.28974,14.818,41.42092,41.42092,0,0,1-14.38911,9.53291,49.15955,49.15955,0,0,1-18.57782,3.38207H491.00944V310.74442h34.57868a49.3582,49.3582,0,0,1,18.57782,3.37168,41.24678,41.24678,0,0,1,14.38911,9.57854,43.04254,43.04254,0,0,1,9.28974,14.84581A53.72189,53.72189,0,0,1,571.13335,357.75053Z"/>
      <g class="cls-13">
        <g>
          <rect class="cls-3" x="-50.37002" y="-742.41639" width="1718.02293" height="1654.03509"/>
          <g class="cls-14">
            <g>
              <rect class="cls-3" x="-50.17668" y="-742.48039" width="1718.02232" height="1653.90936"/>
              <g class="cls-15">
                <g>
                  <rect class="cls-3" x="-50.37002" y="-742.41639" width="1718.02293" height="1654.03509"/>
                  <g class="cls-14">
                    <rect class="cls-3" x="490.76099" y="309.45188" width="634.61108" height="96.35922"/>
                  </g>
                </g>
              </g>
            </g>
          </g>
        </g>
      </g>
    </g>
  </g>
</svg>
