<svg id="图层_3" data-name="图层 3" xmlns="http://www.w3.org/2000/svg" viewBox="0 0 1250 703"><defs><style>.cls-1{fill:#252f3e;}.cls-2{fill:#f90;fill-rule:evenodd;}</style></defs><path class="cls-1" d="M515.45,309.86q0,9.34,1.9,14.9a77.46,77.46,0,0,0,5.4,12,7.69,7.69,0,0,1,1.17,3.79q0,2.63-3.22,5l-10.51,7a8.4,8.4,0,0,1-4.38,1.46,7,7,0,0,1-5-2.34,37.65,37.65,0,0,1-6-7.74q-2.49-4.23-5.11-9.78-19.58,23.07-49.08,23.08-21,0-33.31-12t-12.27-32.14q0-21.31,15.19-34.33t40.9-13a124.66,124.66,0,0,1,17.68,1.32q9.19,1.31,19.13,3.65V258.44q0-19-7.88-26.73T452.93,224a77.48,77.48,0,0,0-18,2.19,128.46,128.46,0,0,0-18,5.7,48.15,48.15,0,0,1-5.84,2.19,12,12,0,0,1-2.63.43c-2.34,0-3.5-1.75-3.5-5.25v-8.18c0-2.73.38-4.68,1.16-5.85a12.06,12.06,0,0,1,4.68-3.5,109.52,109.52,0,0,1,21-7.6,102.38,102.38,0,0,1,26-3.21q29.81,0,43.68,13.58t13.88,41.05Zm-67.78,25.41a53.9,53.9,0,0,0,17.24-3.06,36.48,36.48,0,0,0,15.77-10.67,26.4,26.4,0,0,0,5.7-10.66,56.5,56.5,0,0,0,1.6-14.46v-7a145.07,145.07,0,0,0-15.33-2.78,124.18,124.18,0,0,0-15.63-1q-16.65,0-24.83,6.72T424,311.61q0,11.68,6.14,17.68T447.67,335.27Zm134.09,18.12q-4.38,0-6.42-1.61t-3.51-6.57L532.68,216.08a30,30,0,0,1-1.46-6.72c0-2.72,1.36-4.09,4.09-4.09h16.36q4.68,0,6.58,1.61t3.35,6.57l28,110.43,26-110.43q1.17-5,3.22-6.57t6.71-1.61H639q4.68,0,6.72,1.61c1.36,1.07,2.44,3.26,3.22,6.57l26.29,111.89,28.92-111.89q1.46-5,3.36-6.57t6.57-1.61h15.49c2.72,0,4.09,1.37,4.09,4.09a13.87,13.87,0,0,1-.29,2.63,38.44,38.44,0,0,1-1.17,4.09L691.9,345.21c-1,3.31-2.14,5.5-3.5,6.57s-3.51,1.61-6.43,1.61H667.65c-3.11,0-5.36-.59-6.72-1.76s-2.43-3.4-3.21-6.72l-26-107.5L606,344.91q-1.17,5-3.21,6.72t-6.72,1.76Zm214.44,4.38a113.5,113.5,0,0,1-25.71-2.92q-12.57-2.93-19.28-6.72c-2.73-1.56-4.44-3.11-5.12-4.68a11.55,11.55,0,0,1-1-4.67v-8.47q0-5.26,3.8-5.26a9.27,9.27,0,0,1,3.07.58c1.06.4,2.48,1,4.23,1.76a88.31,88.31,0,0,0,18.41,5.84,98.46,98.46,0,0,0,19.86,2q15.78,0,24.4-5.55A17.69,17.69,0,0,0,827.46,314a16.13,16.13,0,0,0-4.53-11.69q-4.53-4.67-16.8-8.76l-24.25-7.6q-18.4-5.83-26.73-16.94a39.57,39.57,0,0,1-8.33-24.25,37.13,37.13,0,0,1,4.53-18.55,44.83,44.83,0,0,1,12-13.73,52.9,52.9,0,0,1,17.38-8.62,74.08,74.08,0,0,1,21-2.92,87.89,87.89,0,0,1,11.25.73c3.79.49,7.4,1.12,10.8,1.9s6.58,1.65,9.5,2.63a42.33,42.33,0,0,1,7,2.92,15.91,15.91,0,0,1,5,4.09,9.39,9.39,0,0,1,1.46,5.55v7.89c0,3.5-1.27,5.26-3.8,5.26-1.36,0-3.51-.69-6.43-2.05a77.69,77.69,0,0,0-32.13-6.43q-14.32,0-22.21,4.68T774.29,243a15.86,15.86,0,0,0,5,11.83q5,4.82,18.41,9.2l23.66,7.6q18.1,5.84,25.86,16.06A37.78,37.78,0,0,1,854.92,311a42.24,42.24,0,0,1-4.38,19.42,44.33,44.33,0,0,1-12.13,14.76,54.52,54.52,0,0,1-18.55,9.35A82.84,82.84,0,0,1,796.2,357.77Z"/><path class="cls-2" d="M827.77,440c-55,40.56-134.65,62.13-203.27,62.13-96.16,0-182.77-35.55-248.3-94.72-5.14-4.65-.56-11,5.63-7.39,70.71,41.14,158.14,65.92,248.45,65.92,60.92,0,127.88-12.64,189.5-38.78C829.07,423.2,836.86,433.26,827.77,440Z"/><path class="cls-2" d="M850.64,413.87c-7-9-46.46-4.27-64.19-2.14-5.36.64-6.2-4.05-1.36-7.45,31.47-22.1,83-15.72,89-8.32s-1.59,59.15-31.07,83.82c-4.54,3.79-8.85,1.77-6.84-3.24C842.83,460,857.68,422.87,850.64,413.87Z"/></svg>