<svg id="LOGOS" xmlns="http://www.w3.org/2000/svg" viewBox="0 0 1250 703">
  <defs>
    <style>
      .cls-1 {
        fill: #5f6368;
      }

      .cls-2 {
        fill: #4285f4;
      }

      .cls-3 {
        fill: #ea4335;
      }

      .cls-4 {
        fill: #fbbc04;
      }

      .cls-5 {
        fill: #34a853;
      }
    </style>
  </defs>
  <g id="_1" data-name="1">
    <g>
      <g>
        <path class="cls-1" d="M765.12681,397.01074q-25.12971,0-42.04165-16.90971-16.74867-16.90971-16.74867-42.19376t16.74867-42.04165q16.74866-17.064,42.04165-17.06628,25.59942,0,41.563,18.48884l-10.42766,10.11451q-12.17231-14.69533-31.13534-14.69534-18.8154,0-31.44848,12.642-12.4944,12.4877-12.48992,32.5579,0,20.07022,12.48992,32.55343,12.642,12.64874,31.44848,12.642,19.75483,0,34.29361-16.59209l10.5887,10.27108a54.87234,54.87234,0,0,1-19.75484,14.93691A60.22342,60.22342,0,0,1,765.12681,397.01074Z"/>
        <path class="cls-1" d="M835.78077,281.32685V394.48323H821.242V281.32685Z"/>
        <path class="cls-1" d="M847.80545,355.76536q0-17.86255,11.21946-29.5562,11.3805-11.68919,28.60783-11.69365,17.22509,0,28.44678,11.69365Q927.46,337.91174,927.46,355.76536q0,18.01689-11.38051,29.55173-11.21945,11.69589-28.44678,11.69365-17.22509,0-28.60783-11.69365Q847.80545,373.62122,847.80545,355.76536Zm14.53877,0q0,12.481,7.27386,20.229a24.82644,24.82644,0,0,0,36.02932,0q7.27386-7.74357,7.27386-20.229,0-12.32664-7.27386-20.07245a24.48943,24.48943,0,0,0-36.02932,0Q862.34422,343.43648,862.34422,355.76536Z"/>
        <path class="cls-1" d="M1007.32933,394.48323h-13.908V383.738h-.63076a25.8388,25.8388,0,0,1-10.195,9.47928,29.19785,29.19785,0,0,1-14.30167,3.7935q-14.22564,0-21.88868-8.13724-7.66977-8.13948-7.66306-23.15467V317.043h14.53878v47.72743q.46971,18.96975,19.1196,18.96751a18.16527,18.16527,0,0,0,14.53877-7.0323,25.46706,25.46706,0,0,0,5.8513-16.83366V317.043h14.53877Z"/>
        <path class="cls-1" d="M1056.06777,397.01074q-15.17178,0-26.07585-12.01127-10.74975-12.16558-10.74527-29.23411,0-17.07075,10.74527-29.23859,10.90409-12.01127,26.07585-12.01126a33.39154,33.39154,0,0,1,15.56767,3.63693,27.2717,27.2717,0,0,1,10.82579,9.64032h.63076l-.63076-10.74974V281.32685H1097V394.48323h-13.908V383.738h-.63076a27.2717,27.2717,0,0,1-10.82579,9.64032A33.4433,33.4433,0,0,1,1056.06777,397.01074Zm2.37093-13.27278a22.25839,22.25839,0,0,0,17.54047-7.74358q7.11282-7.74357,7.11282-20.229,0-12.1723-7.11282-20.07245a22.375,22.375,0,0,0-17.54047-7.90015,22.67366,22.67366,0,0,0-17.54047,7.90015q-7.1128,7.90461-7.11281,20.07245,0,12.32664,7.11281,20.068A22.66323,22.66323,0,0,0,1058.4387,383.738Z"/>
      </g>
      <g>
        <path class="cls-2" d="M276.07252,325.9997a74.29466,74.29466,0,0,1,.9864,12.16186c0,13.10458-3.33392,29.33082-14.848,40.87563-11.20177,11.70143-25.5142,17.94262-44.49474,17.94262C182.55764,396.97981,153,368.2712,153,333.01242c0-35.2609,29.55764-63.96739,64.71616-63.96739,19.449,0,33.293,7.64434,43.71813,17.62939l-12.29071,12.32576a44.37023,44.37023,0,0,0-31.42742-12.48025c-25.67036,0-45.73562,20.74892-45.73562,46.49249,0,25.74145,20.06526,46.49249,45.73562,46.49249,16.64649,0,26.13887-6.7089,32.204-12.79348,4.98044-4.99252,8.35931-12.18492,9.61731-23.23651H217.83012V326Z"/>
        <path class="cls-3" d="M366.93941,355.791c0,23.714-18.44044,41.18886-41.05908,41.18886s-41.05908-17.4749-41.05908-41.18886c0-23.87058,18.44044-41.18886,41.05908-41.18886S366.93941,331.92037,366.93941,355.791Zm-17.97386,0c0-14.82308-10.68931-24.96263-23.08522-24.96263s-23.08522,10.13955-23.08522,24.96263c0,14.66435,10.68931,24.96262,23.08522,24.96262S348.96555,370.4553,348.96555,355.791Z"/>
        <path class="cls-4" d="M457.70158,355.791c0,23.714-18.44044,41.18886-41.05908,41.18886s-41.05908-17.4749-41.05908-41.18886c0-23.87058,18.44044-41.18886,41.05908-41.18886S457.70158,331.92037,457.70158,355.791Zm-17.97385,0c0-14.82308-10.68932-24.96263-23.08523-24.96263s-23.08522,10.13955-23.08522,24.96263c0,14.66435,10.68932,24.96262,23.08522,24.96262S439.72773,370.4553,439.72773,355.791Z"/>
        <path class="cls-2" d="M544.71241,317.09941v73.95032c0,30.42287-17.8916,42.90524-39.05,42.90524-19.91332,0-31.8917-13.41781-36.40364-24.3383l15.71371-6.55229c2.80255,6.70679,9.64433,14.66435,20.68993,14.66435,13.53582,0,21.93925-8.42528,21.93925-24.18168V387.617H526.977c-4.04344,4.99253-11.82221,9.36284-21.6227,9.36284-20.538,0-39.00868-17.94262-39.00868-41.03437,0-23.24624,18.47069-41.34335,39.00868-41.34335,9.80049,0,17.57926,4.36819,21.6227,9.20411h.62466v-6.70679Zm-15.86988,38.846c0-14.50774-9.64432-25.11712-21.935-25.11712-12.44266,0-22.51414,10.60938-22.51414,25.11712,0,14.35536,10.07148,24.80813,22.51414,24.80813C519.19821,380.75357,528.84253,370.3008,528.84253,355.94544Z"/>
        <path class="cls-5" d="M576.55681,273.41323V394.48249H558.50905V273.41323Z"/>
        <path class="cls-3" d="M646.69558,369.36325l14.0001,9.36072a40.8309,40.8309,0,0,1-34.22574,18.25584c-23.33632,0-40.75941-18.09923-40.75941-41.18886,0-24.49491,17.57926-41.18886,38.73769-41.18886,21.31037,0,31.73552,17.00506,35.15852,26.21128l1.86555,4.6793L606.55662,368.2712c4.19961,8.26867,10.73327,12.48237,19.91332,12.48237S642.02748,376.22877,646.69558,369.36325Zm-43.09346-14.821,36.71175-15.28868c-2.02172-5.14914-8.08688-8.73851-15.24521-8.73851C615.88861,330.5151,603.13362,338.62928,603.60212,354.54229Z"/>
      </g>
    </g>
  </g>
</svg>
