<svg xmlns="http://www.w3.org/2000/svg" xmlns:xlink="http://www.w3.org/1999/xlink" viewBox="0 0 1250 703">
  <defs>
    <style>
      .cls-1 {
        isolation: isolate;
      }

      .cls-2, .cls-7 {
        fill: none;
      }

      .cls-2 {
        stroke: #000;
        stroke-width: 1.38712px;
      }

      .cls-3 {
        fill: url(#radial-gradient);
      }

      .cls-4 {
        fill: #004987;
      }

      .cls-5 {
        fill: #fff;
      }

      .cls-6 {
        opacity: 0.87;
        mix-blend-mode: multiply;
      }

      .cls-7 {
        stroke: #231f20;
        stroke-width: 0.17338px;
      }
    </style>
    <radialGradient id="radial-gradient" cx="787.08036" cy="277.73025" r="183.8941" gradientUnits="userSpaceOnUse">
      <stop offset="0" stop-color="#fff"/>
      <stop offset="0.82023" stop-color="#004987"/>
    </radialGradient>
  </defs>
  <title>gtc20-partner-logo-futuretech-1250x703</title>
  <g class="cls-1">
    <g id="LOGO">
      <g>
        <g>
          <polyline class="cls-2" points="426.386 406.077 245.53 406.077 293.01 278.854 724.24 278.854"/>
          <path d="M435.12934,405.945a7.54319,7.54319,0,1,1-7.54181-7.54246A7.54141,7.54141,0,0,1,435.12934,405.945Z"/>
        </g>
        <path class="cls-3" d="M700.28423,351.49866a152.54153,152.54153,0,1,1,152.542,152.54424A152.54355,152.54355,0,0,1,700.28423,351.49866Z"/>
        <g>
          <path d="M922.19862,239.037h5.161v2.29175c2.38038-.55075,1.92584-.21313,2.58371-2.29175q1.28863.3825,2.58483.765c-.89272,3.24926-3.41015,4.22683-4.30623,7.64568h.86131q2.57877-1.91165,5.1642-3.82607v-.765h3.43737c.28595-.50844.57525-1.01676.8612-1.52787h4.30188c.28384.76711.573,1.52787.86009,2.29286h.86131v2.29275c-4.68572,2.48861-9.32577,13.81417-10.32185,19.87709q.85469,3.437,1.71806,6.8769h-3.43734v3.0573h1.71928q.4256,3.05679.859,6.11136h-.859c-.2001.871,1.76594,1.43756.859,3.06108-.859.255-1.718.50732-2.57825.76343.28161.765.56545,1.52831.86022,2.29442h-.86022c-.98525.871-.00546.30455-1.72574.76232.286,1.52887.57524,3.0546.8612,4.58672-.8612-.25767-1.72029-.50721-2.58038-.765v.765c2.27594,1.25605,2.59352,2.76533,2.58038,6.11459h-2.58038a6.772,6.772,0,0,0-.86131-3.0583h-.86231c-.28381,2.47548-.7808,2.24821-1.71817,3.82062.92437-.28484,3.644-.94606,5.161,0v.7661q-1.71924,1.14917-3.4428,2.29553v.76444h-1.71817c-.28707.50732-.573,1.01843-.86009,1.52675q-2.58209.381-5.161.7651-1.29348,1.52666-2.5826,3.05449h-.85908v1.5311c-.57314.25235-1.15161.50679-1.72138.76722-2.61313,2.3961-3.22969,3.0062-7.7447,3.81963.04468,5.89545-2.202,7.66629-2.58048,12.99194q-3.87558-1.14749-7.74134-2.29274-.86454-2.29181-1.72463-4.58461h-.85583v-2.29664H892.948v-1.52676h-.86231v-3.05729h-.85908V313.1777h-.86232v-6.87791c.97756-.64818.12394.09566.86232-.7651h2.58373v-3.82061c-2.07374.3914-2.65444.98524-4.3019,1.52942v-.76711H888.644q.4321-2.29263.86443-4.58571c1.14292.25611,2.29341.5111,3.43956.76443v-1.52675H891.2266v-1.52945c-.86232.255-1.71817.51111-2.5826.76234v-.76234c-.57313-.25876-1.1495-.50942-1.71929-.765,2.24668-5.50347-2.24442-13.37264-4.29854-17.57875q-1.29363-.38418-2.58382-.76455v-.765c-5.61874-1.80625-9.84334,4.77758-10.32728-3.0573h-1.718c.54039-2.16124,1.51584-1.804,1.718-3.05618H868.856c-.287-.76722-.573-1.52942-.859-2.294-2.51857-.52191-2.82078-.85029-3.44068-3.05885.97544-.86733.34151-.00169.86231-1.52575q4.72545-1.91566,9.45953-3.8234v-1.52832h.86017v-3.8234h-3.44279c.40777-3.8038,2.54674-4.29909,3.44279-7.64412h3.43957v-1.5272h.86443c-.28916-1.27454-.573-2.5473-.86443-3.82184h.86443c2.11837-2.32538,5.75793-3.6684,10.32193-3.82385A5.02242,5.02242,0,0,0,892.948,239.037v-.76554h.86234v-2.29453h.85583v-.75954a6.79136,6.79136,0,0,1,3.4428.75954v-.75954h.86231v-3.81961q.85469-.38985,1.71806-.76822c1.19295-1.57954-.386-1.08146,1.72363-2.29286v-.76232q2.14815-.384,4.29965-.76711v-.765q1.72257-.38016,3.4428-.76343v-.76332h2.58048v-.76722q6.01888.38646,12.04544.76722a24.92607,24.92607,0,0,0,9.46608,9.17021v.76833h-.85906a14.35923,14.35923,0,0,1-5.16645,3.05618q-2.58209-.38169-5.162-.76878v.76878C922.08014,238.38012,922.71633,237.51023,922.19862,239.037Z"/>
          <path d="M867.14227,255.85288c-2.35978.49374-1.966,1.00106-4.30945,1.529q-.85485,4.58511-1.71928,9.17133h-2.57937v2.29174c-.57636.25612-1.14938.51111-1.72463.76722-.56979,1.934,1.27232,1.49524,1.72463,2.29386-.28707.76232-.57636,1.52576-.86231,2.29175a19.08,19.08,0,0,1-4.30511,1.52787v-1.52787c-1.94433.71611-7.59135,1.54914-9.46285,0-.97756-.87534-.33818-.00379-.859-1.52943a11.46468,11.46468,0,0,0,3.44282-2.29386h-.86245v-3.05629h1.7214v-.765c-.759-.45076-2.35745-.69595-1.7214-2.29386h.86245c1.01665-3.39559,2.49126-2.46258,2.58034-7.6409-2.95663-1.55392-1.95512-1.705-1.72139-5.35118,1.43221.25446,2.86977.50679,4.30188.76223.28606-.50777.57524-1.01887.85908-1.52833h2.57826v-.76341q1.29351-.3825,2.58594-.76332v-1.52676h-.86232c-1.85513,1.5056-9.05284,1.58165-12.90564,1.52676-.286-.765-.57188-1.52676-.859-2.294-2.22057-2.04109-.00546-5.24793.859-6.87846h2.58385v-2.29175c3.28944-.79606,5.47075-3.52,7.74456-5.35394.286-.50732.56988-1.01843.85361-1.52675q3.4483-.38083,6.88782-.764v.764h.85908v-.764h1.72352v-.76444h5.15873c1.356,1.38,1.716.652,3.4428,1.52843v.76822h1.72031c.28493.50465.57311,1.01464.86017,1.523a19.92212,19.92212,0,0,0,5.16308,3.05618v1.53332c-1.72351,1.27329-3.43945,2.54507-5.16308,3.8185v3.05841c-1.14826.76878-2.29439,1.5272-3.44279,2.2933v1.529q-1.28864.76667-2.58049,1.52832v1.52951H868.856C868.283,252.795,867.70772,254.32457,867.14227,255.85288Z"/>
          <path d="M837.884,245.15592q1.29346.37514,2.58048.75842.43379,2.3.85909,4.58681c1.4321.255,2.87289.50946,4.30177.7661v4.58563c2.57839.59273,2.26513.47035,2.58382,3.0573a8.52219,8.52219,0,0,0-4.30522,6.11625h-4.29854c-.29141-.50832-.57525-1.01943-.85909-1.53321H837.884c-.28929-1.27343-.57525-2.54351-.86229-3.81961h.86229v-2.29175h-.86229v-2.294h-.86133C834.92722,251.44343,837.49467,248.1229,837.884,245.15592Z"/>
          <path d="M830.13717,255.08789v-1.52943c.97756.6454.12605-.09843.86231.76611h.8612C830.88089,255.19445,831.85523,254.62689,830.13717,255.08789Z"/>
          <path d="M823.2548,261.202c-2.37281-.55086-1.9215-.21212-2.57825-2.29185.97533-.64919.1207.09732.85686-.76333q3.445.7625,6.88236,1.52676a39.64437,39.64437,0,0,1,1.7214,6.11782c.97756-.64808.12605.09576.86231-.765h.8612V261.202h.85909c1.36473,2.103,2.12594,1.37554,2.58373,4.5894-.97981.64484-.12941-.1-.85911.76176q-2.58693.385-5.16965.765-.85468-1.14749-1.71594-2.29175h-2.57714C822.984,264.34841,823.42,263.51059,823.2548,261.202Z"/>
          <path d="M817.23375,263.49322v1.53321h-5.161v-1.53321C815.26871,263.04135,814.03883,263.0528,817.23375,263.49322Z"/>
          <path d="M810.3525,266.55319v1.52954c-.9809-.64652-.12939.09621-.86565-.76455-.97434-.64642-.12282.09576-.85363-.765Z"/>
          <path d="M816.37246,266.55319v2.29174h-.86233v.76722h-3.43734c-.28818-.76722-.572-1.52942-.86454-2.294h1.72139v-.765Z"/>
          <path d="M834.44439,267.31818a14.18744,14.18744,0,0,1,5.161.76455v.7622h-.85909v.76722h-2.58593v-.76722c-1.33534-.96175-1.7214.82479-2.57826-.7622C834.53359,267.41114,834.34651,268.39529,834.44439,267.31818Z"/>
          <path d="M824.11934,271.13779H822.398v-3.05506h.85685v1.52942C824.23782,270.47937,823.59955,269.61215,824.11934,271.13779Z"/>
          <path d="M806.91182,274.96008c-.8612-.255-1.72351-.50721-2.58583-.76232v.76232c-2.811,2.04543-.33383,2.22928-6.02005,2.29509-.28706-.76455-.573-1.53166-.86229-2.29509h.86229c1.26686-2.13563,7.326-6.73438,9.465-5.34793h.86232C808.058,271.395,807.4795,273.17777,806.91182,274.96008Z"/>
          <path d="M834.44439,271.906c1.7106.30776,7.05307,2.1118,7.74145,3.05407.83292,1.14559-.30232,2.29509.85909,3.05729h1.71917v.76611q4.30466-.3825,8.60265-.76611v.76611c.86556.25344,1.71917.50944,2.58151.76343-.28487,1.2733-.56759,2.54886-.86234,3.82438q-2.57876-.38163-5.15874-.76553v1.52676c-4.118-.02-6.16459-.934-9.46274-1.52676-2.2727-6.01938,1.07-5.86827-6.02-8.408Z"/>
          <path d="M818.09607,275.72563c1.14292.255,2.29441.51111,3.43734.765v4.5857c-4.82168-.08806-6.56913.771-8.60377,3.0562-1.72674-.4404-.74372.09186-1.72139-.76123-.97757-.871-.34141-.00488-.85575-1.5343h1.72029v-.76067c-.97757-.64538-.12617.093-.86454-.765-.5698.25334-1.145.50888-1.7214.765v.76067c-.85363-.25233-1.716-.50833-2.575-.76067q-.43712-1.14749-.8612-2.29284c2.675-2.16558.20222-3.25083,5.15763-3.8234.983.86944.00334.30555,1.72139.76555.28932,1.02.57313,2.03786.86454,3.05785h2.57828c-.18373-3.25083-.78837-3.08772,0-5.35171.97768.6454.12614-.09844.86129.766C818.20909,275.06774,817.57627,274.19887,818.09607,275.72563Z"/>
          <path d="M831.86068,274.19776v6.11357c-.97979.64542-.12616-.09675-.8612.765h-2.58371v-1.52941c-3.868-1.2789-5.04783-1.39582-5.161-6.11514h.86454a5.467,5.467,0,0,0,2.57826,2.29386c.6699-2.29119.52737-2.00847,3.43957-2.29386C831.12019,274.30274,830.14251,273.73787,831.86068,274.19776Z"/>
          <path d="M837.02167,278.78348v3.82228h-.86133c-.9808-.87422,0-.30666-1.716-.76877v-2.29008h.85911C836.281,278.6758,835.3035,279.24181,837.02167,278.78348Z"/>
          <path d="M808.63322,288.71824h-1.7214q-1.2918,1.53081-2.58583,3.0546h-.85908c-2.39675,3.21009.53939,4.26916-5.161,5.35552-.25221-1.76483-.18161-1.93776-.86229-3.05886h-.85577c-.86777-2.02051,1.54736-5.06364,1.71806-6.11358a15.31271,15.31271,0,0,1-.86229-3.05785q1.7192-.38166,3.44278-.76555v-.76123c.85908.25012,1.71928.50623,2.58048.76123v.76555h3.44491C807.8503,286.48573,808.29727,286.25189,808.63322,288.71824Z"/>
          <path d="M837.884,291.01321q-.43394,2.29014-.86229,4.5857c.573.255,1.14824.51111,1.7246.76234v1.52943h.85909v1.52887h.85908c-.28926,1.0211-.57313,2.03574-.85908,3.05684h.85908q.85953,1.15067,1.7214,2.29387,1.28863-.765,2.57826-1.52676a13.68776,13.68776,0,0,0,.8612,6.11078q.85969-.38,1.7214-.7633c.72858-.86565-.113-.11046.86242-.76343v-6.11347h3.43946v1.52942c2.376.55187,1.92584.21257,2.58373,2.29119h-1.72465c.32838,2.70553,1.06676,2.32059,1.72465,4.58739a8.06914,8.06914,0,0,0-3.44282,3.05562c-1.55281-.71989-1.35382-1.0613-3.44279-1.5251-.13374,3.85872-1.72675,4.764-2.5826,7.63758h-2.57826v2.29664c-2.9034.7454-1.64746.92265-3.43957,2.29331v.76343h-1.7246q-.42579,3.43845-.86133,6.87791c.86133.25232,1.72362.51111,2.58593.76232v3.059c5.36864-.06848,3.89189.834,6.879,2.29231,1.14615.25553,2.29667.50888,3.44279.7633v.76779c1.04616.46,2.87524-.13373,3.43957.76442v3.82119h1.72465c-.20012,1.06575-.04022-.03419-.86556.76455q.86454,1.141,1.71917,2.29274c.97979-.64206.12839.09465.86234-.766,1.48107-.85908,1.16906-.48338,1.7236-2.2913h-.86232c-.28606-1.27877-.57313-2.54886-.86128-3.82119,2.66965-1.28644,3.44722-2.32,3.44722-6.11457h-.86131v-1.53221h-.86231q.42892-2.29014.86231-4.58461h-.86231q.42892-1.90914.86231-3.81905h-.86231v-.76332h.86231V322.349h.86131v.76778h5.16086v.76332c1.67685,1.0309,1.97152,1.717,4.29965,2.2913V329.992c1.8313.92813,1.87373,1.71873,4.30188,2.29175.94071-1.58711,1.38433-1.3506,1.72031-3.81962h1.72471c.57525,2.69739,2.31516,4.13875,3.43946,6.11515v.76343h-.86443c-.20444,1.81059.4208,1.97473.86443,3.05561,2.48594,1.20929,3.93431,3.121,6.88236,3.82665V345.277q-1.28862.3865-2.58594.76611c-.9721.87256,0,.30767-1.7126.766v1.52676q-4.73526.381-9.4683.7661-1.29346,1.52514-2.58048,3.059h.85908c1.74757-1.81872,2.1314-1.36908,4.30188-.765-.71764,1.04448-1.98129.40721-1.71917,1.52831h.859a11.24135,11.24135,0,0,1,.86017,3.05629,28.42026,28.42026,0,0,0,6.0254-.76345c-.62525,2.11236-.24141,1.7095-2.58583,2.29288v.76176h-2.575v.76722q-1.29681.38082-2.58371.76221c.49474-1.86707.89929-1.68445,1.71917-3.0573h-1.71917a10.58385,10.58385,0,0,1-6.02216,3.0573c-.2893.7661-.57636,1.52842-.85475,2.29553h.85475v.76232c-3.04591.2904-2.60988.94827-5.1642,1.529v2.2933h-1.71928q.43061,1.14265.8602,2.2913h-.8602a3.27341,3.27341,0,0,0-1.71806-1.52408v1.52408c1.17.8906,1.3114,1.3967,1.71806,3.06264-3.271,1.48487-7.24226,4.48729-7.74679,8.40422h.86556q.42906,2.67513.85361,5.35015c-2.37059-.55464-1.92362-.21535-2.57826-2.2912h-.85908v-3.059h-.85909v-.76232c-2.01058.54485-1.792.87111-4.30174,0v-.76878h-4.30191v.76878c.97757.87111.34364,0,.85909,1.52676h-2.58049c-.28926-.51111-.57313-1.02-.85908-1.52676a20.84439,20.84439,0,0,1-3.445.76232c-.92757,1.30271-1.83228,1.61805-3.44057,2.29342.17938,6.108-3.48411,12.25089,7.74467,12.22806a14.55378,14.55378,0,0,0,1.7214-3.82117h4.30191q-1.29367,3.43679-2.58385,6.88012h6.88559v6.1146a6.63107,6.63107,0,0,1,1.71817,1.52676h3.4406v.76443c-.97759.87321-.33921.00323-.86234,1.52676h-.85361c-1.16789-1.20809-1.86595-1.32443-4.30513-1.52676v-1.52887h-1.71806c-.54919-2.0999-1.63989-2.82512-2.58382-4.58349a17.99946,17.99946,0,0,1-7.74134-1.52675v-.76668h-6.02328v-.76231c-3.94188-1.57675-6.08085-1.70837-8.60588-4.58894H822.398q-.434-1.915-.86454-3.82006c-1.43434-1.0201-2.8621-2.039-4.29966-3.059v-1.53h-.86129q-.85956-1.14183-1.72142-2.29121c-.56979-.25453-1.14827-.51222-1.7214-.76452-1.35059-1.98564.90909-1.42454-1.72139-3.06-.722-.8661.11313-.11091-.85575-.76232v3.05785a9.72637,9.72637,0,0,1,4.29854,6.879h-.85686v-1.52887c-1.83664-1.31362-.49151-1.55615-3.44168-2.2912a5.03448,5.03448,0,0,0-1.71928-3.82127h-.86232v-1.53321c-1.49524-2.46412-2.36735-3.93275-6.02539-4.58193-.62747-2.69518-2.31736-4.13385-3.43957-6.11348v-1.53221h-.86229v-7.64457h.86229q-.85953-3.43679-1.71806-6.87579h.85577c.97322,1.31139.54483,1.033,2.58369,1.52831v-2.29442H799.165v-.76332h-2.57715v-.76455h-.8624c.286.76455.56988,1.52787.8624,2.294h-.8624c-1.14617-1.23648-2.45211-1.58444-3.43948-3.06008h2.57715v-.76444h-1.7214c-1.20807-.69272-.07283-1.88553-.85575-3.05506q-1.71922-1.14682-3.445-2.2913.43227-1.15317.85908-2.29444h-1.71914a6.82516,6.82516,0,0,0-.86457-3.06h-.85908c.10222,2.41626,1.68443,1.43324-.85909,2.29555q-.43059-2.29664-.85908-4.58683h-.86231v1.52787c-1.02.59161-.76767-.46379-.85909-.76444h-.85463V333.051c-.86454-.50733-1.72362-1.01843-2.58594-1.52954V330.757h-1.72362c-.28373-.50888-.57525-1.0211-.859-1.52675-2.00746-.25878-4.0127-.51-6.02-.76611v-.765h-1.7214v-.76332c-.86231-.25611-1.71914-.50944-2.57825-.76443v.76443h-.86231v2.29442q-1.72575.37848-3.44169.76176v-.76176h-.86454v-.76611h.86454c.34687-1.4968-.298-.97377-.86454-1.52831-3.32,5.704-7.49024,11.51908-15.4839,12.99471v-.76442h.85909c3.00128-2.98669,6.4963-2.53483,7.74245-7.64468h-2.57826v.76232a26.59113,26.59113,0,0,0-3.44277-.76232v-2.29119q-1.29351.37848-2.58051.76176v-.76176c-2.02038-1.50061-2.562-3.52165-2.58048-6.88125a20.74787,20.74787,0,0,1,6.02328-2.29386v-3.05629c-3.47108.53505-3.15139.30889-6.88771,0-.49374-1.86816-.89394-1.686-1.71817-3.05886q2.15154-1.14348,4.30188-2.28742v.76067q1.2918.38,2.57937.76443c-.559-5.0152-3.89956-4.46824-5.16308-8.40744h1.7214c.76221-.88949,2.24654-1.08035,2.5826-1.52676V300.948q3.87557-1.91014,7.74245-3.81961v-.76711h2.58271c1.63977,2.11013,2.55431,1.24392,5.16419,2.29386v.76444h3.44169v.76232h3.44056v.7661h5.16309v.76611h1.71928v.76231h1.71806v.76711h1.72362v.76444c.86232.25232,1.7214.50732,2.58594.76232v-.76232c.97534-.871.33929-.00646.85463-1.53155h4.29865c.2893-.509.57525-1.0211.86457-1.52842h1.71914v-.7661c.86121.25878,1.72363.51,2.58594.7661v-1.52842c.56979.255,1.145.51,1.71806.76232.28386.7661.57525,1.53221.85909,2.29452.86233-.25555,1.72473-.509,2.5805-.76231.386.63279-.82214,1.997.86229,1.52942.25444-.07227,1.40282-2.45977,2.58049-2.29553v.76611a9.9808,9.9808,0,0,1,3.43956,1.52942v.76444q3.0127.37848,6.02651.76232-.4339,1.52764-.86565,3.05729c2.87846.3708,2.7023.758,6.02328,0v-.76443a23.05185,23.05185,0,0,0,3.445.76443v-.76443c-.97979-.871-.34152-.0027-.85908-1.52843q2.14818-.3825,4.30188-.76443c.28375.50943.5709,1.01843.85685,1.52953a11.57757,11.57757,0,0,0,6.88237,2.29119,14.71839,14.71839,0,0,0,1.72351-3.82072h-1.72351c.286-1.01732.57847-2.03787.86231-3.05618,2.76633.56221,3.13179,1.03524,3.44491,3.82061h-.86231V308.591h1.72142q.85466-3.05679,1.71817-6.11459c-2.41737-1.16029-3.30586-2.00312-3.43959-5.348,3.40037-2.43363,1.8921-6.04177,1.72142-11.46686q1.71753-.38416,3.44277-.76343v.76343c2.575.59262,2.25968.4708,2.57726,3.05674-.97979.871-.34364.00378-.85909,1.52887Q839.17582,290.6281,837.884,291.01321Z"/>
          <path d="M832.71977,285.6615q.43059,4.58511.86231,9.17242c-1.15049.25557-2.29876.50623-3.44491.765v-.765c-1.21141-.53715-1.05159-1.09936-1.7214-1.529H826.6976c-.94059-.7307-.66555-1.56261-.86017-3.05785,3.48742-1.53869,1.953-.23262,1.72137-3.82062C829.27474,286.17149,830.99948,285.91806,832.71977,285.6615Z"/>
          <path d="M853.36675,286.42649v1.52943c2.2531-1.06019,1.45927-1.35494,5.16742-1.52943.8112,1.37552,1.18746,1.20216,1.72028,3.05618h-.859v.76444c-1.41373.83458-4.73794-.38328-5.16317-.76444V292.54h1.716q.43222-.76416.86128-1.52676,3.011.3825,6.02328.75963v3.06108c3.90491.55244,6.853,2.09768,7.74457,5.348h.85908v3.06163h.85909v.76444h-.85909v2.29185h.85909v.76333h3.44279c.2893.50943.57313,1.01676.86454,1.52786,2.02807,1.70013,2.52826,1.60448,2.575,5.349-1.54746.72424-1.34848,1.06019-3.43957,1.53221a8.05125,8.05125,0,0,0-3.44279-3.059v2.29286c2.71967,1.35594,3.45037,3.01264,3.44279,6.88069a16.29382,16.29382,0,0,1-4.30188-1.53165v.7661a10.613,10.613,0,0,1,2.58271,3.05886h-1.72362c-1.32666-1.406-1.71049-.65732-3.43957-1.5311v-.76221h-1.71372c-.86665-1.02054-1.72362-2.04276-2.58593-3.06119h-1.72352v-.76221q-2.57892.3825-5.161.76221v-3.0534c.97433-.64818.12293.09566.86231-.7661,3.00351.49151,2.36735.8514,5.161,0-.87-2.6974-.80475-1.50449.8612-3.82075h.86231v-3.05783c-1.97907-1.4674-1.10373-2.29286-4.30511-3.05729v-2.29387a5.45408,5.45408,0,0,1-2.57937-2.29452q-1.29346.765-2.58591,1.53221v.76231c-1.46365-.07393-1.42445-1.43544-1.716-1.52842H847.3467q-.86288-1.14915-1.7214-2.29286h-.8612v-1.52675c-.56768-.25611-1.14615-.51111-1.71917-.76711v-7.643c2.42815-1.18145,2.92189-2.11726,6.88225-2.29175v.76332c-2.44887,1.35338-2.65654,3.24-2.58048,6.87969h.86242C848.1275,289.6811,849.50206,287.25674,853.36675,286.42649Z"/>
          <path d="M828.41577,301.71408H826.6976c-.58939,2.23627-.95908,2.5032-3.4428,3.05618q-.85965-1.14348-1.72139-2.29387c-.85686.256-1.71817.511-2.57826.76711v.76444h-1.7214v.76232c-1.72362.25611-3.43957.50943-5.161.76443-.63505-2.45922-1.17121-2.78537-4.30189-3.0583v-2.29452h4.30189v-1.52676h-5.161c-.81989-1.37554-1.195-1.20107-1.72351-3.0562H804.326q.43061-2.29411.86232-4.5857,1.29346-.38567,2.58259-.7661v-.76444h1.716v-.76443c2.18685-.43495,1.66706,1.02433,2.58594,1.52887.5709-.25444,1.14617-.50833,1.72139-.76444v.76444c1.716.254,3.43957.509,5.161.7661.523-2.68805.92534-3.50963,4.29965-3.8234v.76611h.86454c-1.96069,3.85881-1.07444,4.14643-.86454,9.17244.14465.06581,5.161,3.05351,5.161,3.05351Z"/>
          <path d="M861.97374,306.29979v3.05449q-1.2903.3825-2.57826.7678v-3.059Q860.68394,306.68228,861.97374,306.29979Z"/>
          <path d="M799.165,313.94v2.29442h1.7214v-.76221q.86286.38,1.71928.76221v-.76221c.9819-.87111.34575-.00278.8612-1.53221.85908-.25344,1.7214-.50565,2.58371-.76232v-.76443q-1.29346-.38016-2.58371-.76067v-.76722h.85908c-.96676-.80684.00869-.34306-1.72028-.7633-1.853,1.83553-2.84907.61867-4.29977,1.53052v.76067h3.43957v.76443h-.85908C799.90663,314.0487,800.881,313.4817,799.165,313.94Z"/>
          <path d="M941.12646,312.41327q.43394,2.67831.86231,5.35015c-.97979.6464-.12282-.09576-.86231.76221-1.42887.25611-2.86643.51111-4.30188.76455v.765c-1.7182-.25233-3.43623-.51111-5.161-.765v-2.2913H929.9433c.28821-.76444.572-1.52665.85909-2.29275h-1.71918c.28373-.76611.573-1.52843.86009-2.29286,3.53088.82646.95374.81989,2.58483,2.29286a3.29384,3.29384,0,0,0,1.71928-1.52843Q937.68424,312.79353,941.12646,312.41327Z"/>
          <path d="M848.20912,313.94q3.43679,2.29832,6.8768,4.58561c-.72313.87.11525.11313-.85361.76455v.765c-1.43756-.25233-2.86969-.51111-4.30513-.765q-.43377.765-.85909,1.53109c-1.15149.35722-.12939-.32737-.859-.7661-.57525-.25233-1.14838-.51111-1.72137-.765Q847.34724,316.61838,848.20912,313.94Z"/>
          <path d="M809.48685,323.11681c-.27838,2.46846-.77747,2.24386-1.716,3.81905h3.43735v-1.529c2.363-.48772,3.17755-1.45324,5.16421-2.29005V322.349h-2.57828C811.87591,324.20583,812.17278,323.41579,809.48685,323.11681Z"/>
          <path d="M816.37246,329.992c-.28386.51167-.573,1.01943-.86233,1.52943.86233-.25767,1.72362-.51,2.58594-.76444v-.765Z"/>
          <path d="M825.83743,333.816v2.29119h.86017V333.816Z"/>
          <path d="M744.09888,339.93057h1.72351v.76122C744.09342,340.25251,745.07644,340.78477,744.09888,339.93057Z"/>
          <path d="M786.25727,341.45623h1.72365v1.53332h-1.72365Z"/>
          <path d="M830.13717,342.225v1.52675h-1.7214c.92968,1.79589,1.97361,2.48316,2.58371,4.584h.8612c-.66221-2.457-1.29837-1.64468-1.72351-4.584h.86231v.76455c1.38645,1.01186,1.7812,2.17593,3.44491,3.05506v-1.52831c-1.17543-.8906-1.31685-1.39246-1.72462-3.05351C831.86068,342.73344,830.99948,342.473,830.13717,342.225Z"/>
          <path d="M887.7838,346.80905v1.52676h-.85909c.28707.7661.56979,1.53065.85909,2.294h3.4428q-.42894,2.29665-.86232,4.58726h-.85585v-1.52941c-.57636.25611-1.14827.51-1.72463.76442-.2893-.50831-.572-1.01674-.85909-1.52785h-4.29854c-.40788-1.52286.90363-.39308,1.7126-.76332q.43395-2.29665.86455-4.58951h.86231C887.0433,346.69982,886.06563,347.26638,887.7838,346.80905Z"/>
          <path d="M876.60289,349.86646H878.321v.76332C876.58987,350.19105,877.57723,350.72053,876.60289,349.86646Z"/>
          <path d="M849.92718,355.217v-1.52941c-2.3521-1.2114-2.10412-2.0971-6.02328-2.29174-.859,1.01729-1.71806,2.03942-2.58037,3.05616h4.30177v.765Z"/>
          <path d="M877.462,355.217v-1.52941c.97.64262.12393-.09732.859.76442h.857C878.20025,355.31928,879.17792,354.75706,877.462,355.217Z"/>
          <path d="M846.48775,355.98049a31.47755,31.47755,0,0,0-.86245,6.87847h.86245v-.76232h.859v-4.58672q1.29363-.385,2.58048-.76611v.76611c1.39079,1.01408,1.77908,2.17816,3.43957,3.05729v-3.05729h.86556c.49583.31913.12291,1.24948,1.716.76176v-.76176a3.25676,3.25676,0,0,1-1.716-1.52943Z"/>
          <path d="M860.25445,360.56721V359.0389a9.21127,9.21127,0,0,0-3.44491.76221v.7661Z"/>
          <path d="M853.36675,361.32953c-.97979.871,0,.30444-1.71817.76711v.76232h3.43734c.7308-.86889-.10545-.11091.86234-.76232v-.76711Z"/>
          <path d="M852.50766,388.84852h1.72465v.76221C852.50221,389.17367,853.48523,389.70215,852.50766,388.84852Z"/>
          <path d="M854.23231,389.61073h2.57723v.76666h-2.57723Z"/>
          <path d="M857.67186,390.37739c1.43756.50788,2.86643,1.01453,4.30188,1.52675v.76444h-3.43957C858.2471,391.90414,857.95781,391.13971,857.67186,390.37739Z"/>
          <path d="M864.55634,392.66858H868.856q.86288,1.14348,1.7214,2.2923a9.78015,9.78015,0,0,0-4.30177.76443v-.76443C864.79563,394.09857,865.10553,394.47705,864.55634,392.66858Z"/>
          <path d="M901.54841,417.89693v1.52342c.62313-.18919,5.08046-.82746,6.88782,0,.85909,1.0201,1.71918,2.03463,2.57826,3.05685,1.24514.696,2.75442-.34152,3.44282.7612v3.06219c-1.43213,1.52342-2.86757,3.05886-4.3019,4.58561h-.86009v6.87691h-.85909c-1.18534,2.34341-1.16895,4.02561-3.44276,5.35015v.76444h-3.44506v.76555c-2.55654,1.10806-2.6359.02828-4.30188,2.29664h-.85574v4.58238c-.57636.25455-1.14838.51011-1.72463.76232v1.529c-.57313.25554-1.14838.51211-1.71817.76219q-.43394,1.14684-.86231,2.29666h-.85908c-.286.76009-.57525,1.5301-.86232,2.29231h-6.02551v.76666c2.13363,1.73442,1.12767,1.66594.86455,4.58572a38.3493,38.3493,0,0,1-6.88237.7622v3.0612a9.198,9.198,0,0,0-3.44277.7622q.85966,1.14682,1.72471,2.29453c-.57524.249-1.1516.50677-1.72471.76121-.93193,1.66372.87.84928-.859,2.29442-.97979.86665-.00222.30455-1.72362.76232v2.29664c.236.51979,2.40978.23161,1.72362,2.29119q-1.292.765-2.58271,1.52675V483.621q-.85953.38668-1.7214.76556a49.2109,49.2109,0,0,1,.86232,5.35015q2.15149,1.15167,4.30079,2.29119v.76444h-3.44171v1.53009c-3.072-.49152-5.53166-1.76382-6.88013-3.81794,2.81.13373,1.82684,1.18746,3.44068-.76778h-.85475v.76778c-.86665-.25555-1.72362-.51011-2.58593-.76778-.93737-3.1329-1.05039-.87212-2.5826-2.29118.12282-.97,1.5419-1.367.85908-3.059h-.85908q-.4306-1.91166-.8602-3.82117c.57313-.25233,1.14938-.51,1.71928-.76232.70464-2.04655-2.22059-1.69746-1.71928-3.059.57313-.25656,1.14938-.50889,1.71928-.76444v-2.29119h1.72352c.28383-1.27777.56767-2.549.86231-3.82117-.57848-.25455-1.15372-.51222-1.72351-.76455,0,0,1.17978-3.16987.8612-4.5856-.03909-.15991-1.145-.26536-.8612-1.53221h.8612c.28383-1.52676.56767-3.05351.86231-4.58238h.857v-7.64469h.86665v-2.29441h.85475c1.25271-3.46351.05211-7.29994,0-10.70031q-3.445-1.91165-6.88348-3.82117-.86287-2.29347-1.71806-4.58249h-.86131q-.4306-1.53-.86231-3.05886h-.86232c-1.76271-1.97374-2.475-2.39675-2.57723-6.1157h.85361c.66989-1.082-1.28746-1.55826,0-3.82562h.86234v-1.52453c.86128-.51222,1.7236-1.019,2.58591-1.529v-1.5321h.86131c.20222-1.06141-.6699.30442-.86131-.7602v-3.8234h1.72028a12.57284,12.57284,0,0,1,1.71929-3.82006c3.04582-.2893,2.61411-.95151,5.16853-1.52676-.29363.50677-.57847,1.01676-.86665,1.52676h.86665v-.76444c1.50059-.62313,2.75119.44363,3.43512.76444v.76443h4.30079v.76232h.86017a2.42822,2.42822,0,0,1,2.5826-.76232v.76232h1.7214c.85908,1.02211,1.7214,2.03675,2.58382,3.05563h1.7126c.2893.51.57859,1.02544.86455,1.53H888.644v.7612c3.358,1.20384,4.0517-.49039,5.16633,3.0622h.85583q-.42909,1.91181-.85583,3.81794h.85583v-.76443C895.89931,415.83623,899.60957,417.64682,901.54841,417.89693Z"/>
          <path d="M866.27562,404.13443v1.52676h.86665v-1.52676Z"/>
        </g>
        <g>
          <polygon class="cls-4" points="306.964 381.774 282.717 381.774 311.678 295.59 371.78 295.563 366.033 309.903 332.706 309.903 325.241 330.602 357.413 330.602 350.754 347.185 319.262 347.185 306.964 381.774"/>
          <path class="cls-4" d="M381.784,370.20509h9.02668a4.98509,4.98509,0,0,0,1.59746-.23162,3.43749,3.43749,0,0,0,2.4021-2.14274l22.208-54.99176h17.638L410.29906,376.1424q-2.18408,5.63157-7.35317,5.63123H362.9503c-.76766,0-1.56917-.55133-2.41512-1.66485a5.69446,5.69446,0,0,1-1.26418-3.50258,3.45087,3.45087,0,0,1,.23161-1.27064L381.106,312.839h18.79184l-19.87163,54.51326a5.64787,5.64787,0,0,0-.41267,1.59791Q379.61354,370.20372,381.784,370.20509Z"/>
          <polygon class="cls-4" points="445.257 312.824 493.292 312.839 488.69 324.317 473.638 324.2 453.298 381.774 438.243 381.774 457.782 324.2 441.463 324.2 445.257 312.824"/>
          <path class="cls-4" d="M506.23625,370.20509h9.02668a4.97174,4.97174,0,0,0,1.59746-.23162,3.43769,3.43769,0,0,0,2.4021-2.14274L541.46773,312.839H559.1112L534.75128,376.1424q-2.18823,5.63157-7.35538,5.63123H487.40253c-.76722,0-1.5714-.55133-2.41523-1.66485a5.69763,5.69763,0,0,1-1.26408-3.50258,3.4626,3.4626,0,0,1,.23162-1.27064L505.55822,312.839H524.35l-19.87163,54.51326a5.55812,5.55812,0,0,0-.41268,1.59791Q504.06565,370.20372,506.23625,370.20509Z"/>
          <path class="cls-4" d="M599.65643,324.24657H586.57208l-5.93843,16.617h12.14543a1.0057,1.0057,0,0,0,.46.11313q1.60415,0,4.2442-3.54891l3.43734-10.318A3.34736,3.34736,0,0,0,599.65643,324.24657Zm-23.8271,29.85863-9.83844,27.66843H546.56345L569.7751,312.839h49.64539q2.87724.34338,2.87459,3.7891a5.09955,5.09955,0,0,1-.92491,2.87089l-11.95136,30.90355a32.2738,32.2738,0,0,1-5.629,3.67664h-8.62169l1.91549,27.69448h-16.2951l-1.92093-27.69448Z"/>
          <polygon class="cls-4" points="634.36 312.824 682.394 312.839 677.795 324.247 651.136 324.247 645.163 340.706 670.9 340.706 665.615 354.07 640.333 354.07 634.472 370.205 661.592 370.205 656.996 381.774 611.145 381.774 634.36 312.824"/>
        </g>
        <g>
          <path d="M446.33963,396.06461a36.12317,36.12317,0,0,1,5.20873-.38929c3.50271,0,5.99667.7808,7.64959,2.32281a8.67894,8.67894,0,0,1,2.69083,6.8062,10.10825,10.10825,0,0,1-2.71967,7.34013c-1.79265,1.76594-4.7042,2.71632-8.37538,2.71632a34.043,34.043,0,0,1-4.4541-.22291Zm2.46523,16.72358a15.39869,15.39869,0,0,0,2.46468.11525c5.21085.02606,8.03876-2.91643,8.03876-8.01437.02884-4.50956-2.49129-7.28468-7.64736-7.28468a13.71572,13.71572,0,0,0-2.85608.25455Z"/>
          <g>
            <path d="M466.506,408.33621c.05757,3.33189,2.15746,4.7042,4.622,4.7042a9.396,9.396,0,0,0,3.75548-.673l.447,1.73988a11.12745,11.12745,0,0,1-4.53895.86666c-4.14365,0-6.66645-2.77513-6.66645-6.83773,0-4.1149,2.43851-7.33689,6.38807-7.33689,4.42526,0,5.5742,3.89511,5.5742,6.3864a6.42407,6.42407,0,0,1-.0843,1.17667Zm7.19983-1.76594c.02941-1.53978-.646-4.00713-3.38957-4.00713-2.52,0-3.5841,2.29876-3.7842,4.00713Z"/>
            <path d="M479.14073,394.8032h2.46468v19.89012h-2.46468Z"/>
            <path d="M486.86915,398.64509a1.58528,1.58528,0,0,1,.05757-3.16987,1.51617,1.51617,0,0,1,1.56918,1.57139,1.54619,1.54619,0,0,1-1.59791,1.59848Zm-1.17443,16.04823V401.13638h2.46468v13.55694Z"/>
            <path d="M493.20233,401.13638l2.65932,7.59134c.44908,1.25929.81445,2.37816,1.09548,3.50048h.0843c.3051-1.12232.69873-2.24119,1.14838-3.50048l2.63048-7.59134h2.58048l-5.3241,13.55694h-2.35152l-5.15609-13.55694Z"/>
          </g>
          <g>
            <path d="M506.8115,408.33621c.05812,3.33189,2.15745,4.7042,4.62257,4.7042a9.39566,9.39566,0,0,0,3.75549-.673l.4464,1.73988a11.10839,11.10839,0,0,1-4.53784.86666c-4.147,0-6.667-2.77513-6.667-6.83773,0-4.1149,2.43851-7.33689,6.38529-7.33689,4.42537,0,5.57631,3.89511,5.57631,6.3864a6.43484,6.43484,0,0,1-.08363,1.17667Zm7.1976-1.76594c.0294-1.53978-.64106-4.00713-3.38944-4.00713-2.52015,0-3.58423,2.29876-3.77888,4.00713Z"/>
            <path d="M519.47562,405.36644c0-1.59736-.0294-2.96866-.11314-4.23006h2.15478l.11314,2.65876h.081a4.10755,4.10755,0,0,1,3.78432-2.96643,2.592,2.592,0,0,1,.67034.08151v2.29665a8.5048,8.5048,0,0,0-.86453-.05334,3.45008,3.45008,0,0,0-3.30629,3.13836,7.4904,7.4904,0,0,0-.08641,1.17443v7.227h-2.46256Z"/>
          </g>
          <g>
            <path d="M529.89208,398.64509a1.58528,1.58528,0,0,1,.05546-3.16987,1.51731,1.51731,0,0,1,1.56862,1.57139,1.54683,1.54683,0,0,1-1.59524,1.59848Zm-1.1771,16.04823V401.13638h2.46245v13.55694Z"/>
            <path d="M535.26885,404.80433c0-1.42888-.02661-2.549-.11035-3.668H537.342l.142,2.21179h.05545a5.0147,5.0147,0,0,1,4.48016-2.51946c1.87907,0,4.79073,1.12221,4.79073,5.76761v8.097h-2.46525V406.878c0-2.18363-.81176-4.03443-3.13724-4.03443a3.55987,3.55987,0,0,0-3.30571,2.52282,3.68239,3.68239,0,0,0-.1686,1.14615v8.18073h-2.46468Z"/>
            <path d="M562.41425,412.70334c0,3.13836-.6464,5.01409-1.93118,6.21792a7.45261,7.45261,0,0,1-4.96143,1.62464,8.7218,8.7218,0,0,1-4.50955-1.1201l.61767-1.903a7.36593,7.36593,0,0,0,3.97562,1.094c2.52282,0,4.37036-1.31908,4.37036-4.76511v-1.48433h-.05545a4.8041,4.8041,0,0,1-4.31491,2.27048c-3.36073,0-5.7704-2.85664-5.7704-6.63761,0-4.59441,2.99583-7.17155,6.13575-7.17155a4.51734,4.51734,0,0,1,4.2285,2.32482h.05489l.087-2.01715h2.18362c-.08373.95039-.11046,2.04443-.11046,3.69946Zm-2.46456-6.24287a3.41491,3.41491,0,0,0-.142-1.094,3.51688,3.51688,0,0,0-3.44547-2.63483c-2.35154,0-4.036,1.989-4.036,5.15228,0,2.63594,1.374,4.87813,4.00713,4.87813a3.54778,3.54778,0,0,0,3.41886-2.54885,4.08248,4.08248,0,0,0,.19743-1.3202Z"/>
            <path d="M575.38025,397.885v3.25138h3.532v1.87584h-3.532V410.323c0,1.68231.48059,2.63271,1.84967,2.63271a4.51,4.51,0,0,0,1.43-.16748l.11314,1.87585A6.66581,6.66581,0,0,1,576.5862,415a3.50165,3.50165,0,0,1-2.65931-1.03523,5.29392,5.29392,0,0,1-.95095-3.55806v-7.39446h-2.10257v-1.87584h2.10257v-2.49129Z"/>
          </g>
          <g>
            <path d="M587.02983,415c-3.63966,0-6.499-2.68805-6.499-6.97366,0-4.53561,2.9985-7.1976,6.7219-7.1976,3.89734,0,6.52994,2.82947,6.52994,6.94539,0,5.04015-3.50258,7.22587-6.72458,7.22587Zm.08641-1.84643c2.35155,0,4.1176-2.21291,4.1176-5.29572,0-2.29451-1.1505-5.18166-4.06481-5.18166-2.88548,0-4.14421,2.69028-4.14421,5.26642,0,2.96865,1.68176,5.211,4.05991,5.211Z"/>
            <path d="M596.889,404.80433c0-1.42888-.05222-2.549-.11033-3.668h2.15744l.11091,2.18574h.08373a4.67926,4.67926,0,0,1,4.28874-2.49341,4.00256,4.00256,0,0,1,3.8077,2.7142h.0549a5.44063,5.44063,0,0,1,1.54034-1.76605,4.57314,4.57314,0,0,1,2.96921-.94815c1.8214,0,4.4835,1.17432,4.4835,5.87852v7.98609h-2.40978v-7.674c0-2.63481-.97756-4.17572-2.94093-4.17572a3.24091,3.24091,0,0,0-2.94035,2.21292,4.338,4.338,0,0,0-.19745,1.23535v8.40143h-2.407v-8.12305c0-2.18574-.95362-3.72665-2.83269-3.72665a3.40259,3.40259,0,0,0-3.05349,2.46525,3.4884,3.4884,0,0,0-.19467,1.20372v8.18073H596.889Z"/>
            <path d="M625.76937,415c-3.63956,0-6.49631-2.68805-6.49631-6.97366,0-4.53561,2.99594-7.1976,6.72258-7.1976,3.89622,0,6.52781,2.82947,6.52781,6.94539,0,5.04015-3.5037,7.22587-6.7258,7.22587Zm.08374-1.84643c2.35755,0,4.12026-2.21291,4.12026-5.29572,0-2.29451-1.15049-5.18166-4.06258-5.18166-2.88492,0-4.14633,2.69028-4.14633,5.26642,0,2.96865,1.68165,5.211,4.06259,5.211Z"/>
            <path d="M635.66059,405.36644c0-1.59736-.02929-2.96866-.11091-4.23006H637.705l.10979,2.65876h.08485a4.10179,4.10179,0,0,1,3.78421-2.96643,2.61663,2.61663,0,0,1,.672.08151v2.29665a8.54121,8.54121,0,0,0-.87211-.05334,3.44609,3.44609,0,0,0-3.30027,3.13836,7.485,7.485,0,0,0-.08708,1.17443v7.227H635.6313Z"/>
          </g>
          <path d="M644.92333,405.36644c0-1.59736-.02828-2.96866-.10979-4.23006H646.971l.10979,2.65876h.08487a4.1,4.1,0,0,1,3.78095-2.96643,2.64391,2.64391,0,0,1,.67315.08151v2.29665a8.57636,8.57636,0,0,0-.86779-.05334,3.4538,3.4538,0,0,0-3.30583,3.13836,7.77869,7.77869,0,0,0-.08374,1.17443v7.227h-2.46735Z"/>
          <path d="M659.40573,415c-3.64178,0-6.49853-2.68805-6.49853-6.97366,0-4.53561,2.99805-7.1976,6.72469-7.1976,3.89188,0,6.52781,2.82947,6.52781,6.94539,0,5.04015-3.5037,7.22587-6.72469,7.22587Zm.08374-1.84643c2.35532,0,4.118-2.21291,4.118-5.29572,0-2.29451-1.14826-5.18166-4.05935-5.18166-2.886,0-4.14744,2.69028-4.14744,5.26642,0,2.96865,1.679,5.211,4.06259,5.211Z"/>
          <g>
            <path d="M670.04835,401.13638l1.8214,6.86388c.36212,1.51372.7308,2.94037.97979,4.341h.08485c.30989-1.37119.75686-2.82724,1.20272-4.31491l2.21613-6.88993h2.07261l2.09768,6.779c.50674,1.59857.90149,3.05462,1.20595,4.42581h.08371a41.77066,41.77066,0,0,1,1.03847-4.39864l1.9313-6.8062H687.221l-4.36937,13.55694h-2.24219l-2.07271-6.47236c-.47626-1.53978-.86777-2.886-1.20372-4.48016h-.05766a40.28558,40.28558,0,0,1-1.22991,4.51167l-2.18674,6.44085h-2.23908l-4.09087-13.55694Z"/>
            <path d="M691.47825,395.30774l-.44908,6.72146h-1.51373l-.447-6.72146Z"/>
            <path d="M694.61661,412.1988a6.90413,6.90413,0,0,0,3.27633.95474c1.76605,0,2.60442-.86989,2.60442-2.016,0-1.17666-.69918-1.82362-2.49129-2.49353-2.46735-.896-3.61573-2.21512-3.61573-3.83964,0-2.18574,1.79434-3.97562,4.68037-3.97562a6.30342,6.30342,0,0,1,3.30575.83837l-.5883,1.76594a5.56,5.56,0,0,0-2.77513-.78292c-1.456,0-2.239.8406-2.239,1.84645,0,1.14938.78292,1.65392,2.54886,2.326,2.32281.86777,3.55481,2.04432,3.55481,4.08864,0,2.40978-1.87361,4.08874-5.04026,4.08874a7.71816,7.71816,0,0,1-3.81023-.95038Z"/>
          </g>
          <g>
            <path class="cls-5" d="M726.82613,397.885v3.25138h3.52876v1.87584h-3.52876V410.323c0,1.68231.47522,2.63271,1.84753,2.63271a4.52679,4.52679,0,0,0,1.42888-.16748l.11093,1.87585A6.65064,6.65064,0,0,1,728.02993,415a3.49228,3.49228,0,0,1-2.65987-1.03523,5.27907,5.27907,0,0,1-.9536-3.55806v-7.39446h-2.09991v-1.87584h2.09991v-2.49129Z"/>
            <g>
              <path class="cls-5" d="M734.35988,408.33621c.05545,3.33189,2.15523,4.7042,4.6226,4.7042a9.36453,9.36453,0,0,0,3.74944-.673l.45019,1.73988a11.09721,11.09721,0,0,1-4.53672.86666c-4.14632,0-6.66921-2.77513-6.66921-6.83773,0-4.1149,2.43915-7.33689,6.3886-7.33689,4.42484,0,5.57308,3.89511,5.57308,6.3864a6.19408,6.19408,0,0,1-.08371,1.17667Zm7.1976-1.76594c.02619-1.53978-.64373-4.00713-3.38946-4.00713-2.52068,0-3.58521,2.29876-3.77883,4.00713Z"/>
              <path class="cls-5" d="M756.65755,414.21707a9.54537,9.54537,0,0,1-3.8952.7829c-4.08867,0-6.75077-2.77177-6.75077-6.94749a6.91006,6.91006,0,0,1,7.28468-7.22377,7.72913,7.72913,0,0,1,3.41563.72747L756.153,403.433a6.04279,6.04279,0,0,0-2.85677-.64373c-3.109,0-4.79116,2.32493-4.79116,5.15329,0,3.13724,2.016,5.07177,4.70419,5.07177a7.03189,7.03189,0,0,0,3.02735-.647Z"/>
              <path class="cls-5" d="M759.54247,394.8032h2.46523v8.46133h.05757a4.339,4.339,0,0,1,1.76271-1.73664,4.79176,4.79176,0,0,1,2.52069-.69918c1.82362,0,4.73571,1.12221,4.73571,5.79924v8.06537h-2.46512v-7.787c0-2.21191-.81455-4.0333-3.13836-4.0333a3.57,3.57,0,0,0-3.30572,2.46189,3.01922,3.01922,0,0,0-.16748,1.17767v8.18073h-2.46523Z"/>
              <path class="cls-5" d="M775.08939,404.80433c0-1.42888-.02939-2.549-.1109-3.668H777.162l.13919,2.21179h.05768a5.0164,5.0164,0,0,1,4.478-2.51946c1.8823,0,4.79339,1.12221,4.79339,5.76761v8.097h-2.46523V406.878c0-2.18363-.81444-4.03443-3.13725-4.03443a3.5577,3.5577,0,0,0-3.30572,2.52282,3.68594,3.68594,0,0,0-.16859,1.14615v8.18073h-2.46412Z"/>
              <path class="cls-5" d="M796.15394,415c-3.63955,0-6.4963-2.68805-6.4963-6.97366,0-4.53561,2.99594-7.1976,6.71926-7.1976,3.89185,0,6.52779,2.82947,6.52779,6.94539,0,5.04015-3.50037,7.22587-6.71923,7.22587Zm.08377-1.84643c2.35207,0,4.118-2.21291,4.118-5.29572,0-2.29451-1.14824-5.18166-4.06036-5.18166-2.885,0-4.14855,2.69028-4.14855,5.26642,0,2.96865,1.68109,5.211,4.06481,5.211Z"/>
              <path class="cls-5" d="M806.01365,394.8032h2.46412v19.89012h-2.46412Z"/>
              <path class="cls-5" d="M818.08841,415c-3.63958,0-6.49845-2.68805-6.49845-6.97366,0-4.53561,2.99583-7.1976,6.72135-7.1976,3.89522,0,6.52782,2.82947,6.52782,6.94539,0,5.04015-3.50034,7.22587-6.72246,7.22587Zm.08371-1.84643c2.3521,0,4.11815-2.21291,4.11815-5.29572,0-2.29451-1.1505-5.18166-4.06267-5.18166-2.885,0-4.14635,2.69028-4.14635,5.26642,0,2.96865,1.6812,5.211,4.0627,5.211Z"/>
            </g>
            <path class="cls-5" d="M839.56293,412.70334c0,3.13836-.646,5.01409-1.93341,6.21792a7.44243,7.44243,0,0,1-4.95864,1.62464,8.74681,8.74681,0,0,1-4.51287-1.1201l.62088-1.903a7.35721,7.35721,0,0,0,3.97562,1.094c2.52291,0,4.37047-1.31908,4.37047-4.76511v-1.48433h-.05556a4.80864,4.80864,0,0,1-4.31491,2.27048c-3.36118,0-5.771-2.85664-5.771-6.63761,0-4.59441,2.99806-7.17155,6.13308-7.17155a4.52689,4.52689,0,0,1,4.23451,2.32482h.05222l.08363-2.01715h2.18685c-.08485.95039-.11091,2.04443-.11091,3.69946Zm-2.46412-6.24287a3.40223,3.40223,0,0,0-.14242-1.094,3.51369,3.51369,0,0,0-3.44279-2.63483c-2.35644,0-4.0333,1.989-4.0333,5.15228,0,2.63594,1.3691,4.87813,4.00179,4.87813a3.54737,3.54737,0,0,0,3.41885-2.54885,4.09813,4.09813,0,0,0,.19787-1.3202Z"/>
            <g>
              <path class="cls-5" d="M844.49008,401.13638l2.94369,8.00891c.33384.89929.66979,1.96059.89383,2.77513h.05768c.25221-.81454.53282-1.84967.86877-2.82947l2.68928-7.95457h2.60108l-3.69512,9.66183c-1.76271,4.652-2.96866,7.03234-4.65086,8.51667a6.999,6.999,0,0,1-3.02411,1.5692l-.61556-2.07372a5.64028,5.64028,0,0,0,2.15534-1.20272,7.7601,7.7601,0,0,0,2.0726-2.74686,1.54524,1.54524,0,0,0,.19788-.59049,1.45345,1.45345,0,0,0-.19788-.61221l-4.98689-12.5217Z"/>
              <path class="cls-5" d="M865.697,397.885v3.25138h3.52653v1.87584H865.697V410.323c0,1.68231.473,2.63271,1.84756,2.63271a4.48967,4.48967,0,0,0,1.42676-.16748l.11525,1.87585A6.65538,6.65538,0,0,1,866.90089,415a3.50707,3.50707,0,0,1-2.662-1.03523,5.2904,5.2904,0,0,1-.95373-3.55806v-7.39446h-2.09978v-1.87584h2.09978v-2.49129Z"/>
            </g>
            <path class="cls-5" d="M877.34662,415c-3.64279,0-6.50163-2.68805-6.50163-6.97366,0-4.53561,3.00126-7.1976,6.72458-7.1976,3.89408,0,6.52779,2.82947,6.52779,6.94539,0,5.04015-3.50036,7.22587-6.72246,7.22587Zm.08162-1.84643c2.35421,0,4.12026-2.21291,4.12026-5.29572,0-2.29451-1.14835-5.18166-4.06269-5.18166-2.886,0-4.1441,2.69028-4.1441,5.26642,0,2.96865,1.679,5.211,4.05936,5.211Z"/>
            <g>
              <path class="cls-5" d="M898.94188,394.8032v16.38642c0,1.20706.02939,2.57836.11316,3.5037h-2.21517l-.11313-2.3521h-.05545A4.96839,4.96839,0,0,1,892.078,415c-3.2763,0-5.8253-2.77177-5.8253-6.88992-.0294-4.54107,2.80119-7.28134,6.07762-7.28134a4.51172,4.51172,0,0,1,4.092,2.04432h.05223V394.8032ZM896.47453,406.654a4.52693,4.52693,0,0,0-.11088-1.06353,3.6259,3.6259,0,0,0-3.55808-2.83058c-2.549,0-4.05946,2.23907-4.05946,5.20884,0,2.775,1.3713,5.04561,4.00724,5.04561a3.73053,3.73053,0,0,0,3.6103-2.9436,4.25612,4.25612,0,0,0,.11088-1.06465Z"/>
              <path class="cls-5" d="M912.58367,411.44194a23.41851,23.41851,0,0,0,.19353,3.25138h-2.20968l-.22616-1.7116h-.08373A4.99441,4.99441,0,0,1,906.11342,415a3.86207,3.86207,0,0,1-4.14632-3.89409c0-3.27421,2.91432-5.06843,8.15134-5.04015v-.28061c0-1.12-.30778-3.16653-3.07957-3.135a6.51019,6.51019,0,0,0-3.558,1.00808l-.56334-1.65515a8.80168,8.80168,0,0,1,4.4835-1.17432c4.17349,0,5.18268,2.82947,5.18268,5.54691Zm-2.40755-3.66784c-2.69362-.0577-5.7449.4208-5.7449,3.0534a2.16157,2.16157,0,0,0,2.29776,2.35432,3.42442,3.42442,0,0,0,3.334-2.27059,2.541,2.541,0,0,0,.11314-.78293Z"/>
            </g>
            <g>
              <path class="cls-5" d="M917.11928,401.13638l2.9426,8.00891c.33386.89929.6699,1.96059.89383,2.77513h.05768c.2501-.81454.5307-1.84967.86668-2.82947l2.68917-7.95457h2.60328l-3.6939,9.66183c-1.766,4.652-2.96977,7.03234-4.65208,8.51667a7.00956,7.00956,0,0,1-3.02409,1.5692l-.6177-2.07372a5.66911,5.66911,0,0,0,2.15968-1.20272,7.78218,7.78218,0,0,0,2.06827-2.74686,1.49113,1.49113,0,0,0,.19787-.59049,1.4534,1.4534,0,0,0-.19787-.61221l-4.98481-12.5217Z"/>
              <path class="cls-5" d="M930.5632,415a1.73983,1.73983,0,0,1,.02606-3.47318,1.7386,1.7386,0,0,1,0,3.47318Zm-.92545-5.71226-.38817-13.47532h2.688l-.39474,13.47532Z"/>
            </g>
          </g>
        </g>
        <g>
          <g class="cls-6">
            <polygon points="731.479 297.265 791.587 297.239 785.84 311.626 766.992 311.515 741.594 383.45 722.75 383.45 747.225 311.515 726.771 311.515 731.479 297.265"/>
            <polygon class="cls-7" points="731.479 297.265 791.587 297.239 785.84 311.626 766.992 311.515 741.594 383.45 722.75 383.45 747.225 311.515 726.771 311.515 731.479 297.265"/>
          </g>
          <polygon class="cls-5" points="728.129 295.59 788.233 295.563 782.489 309.95 763.642 309.838 738.244 381.774 719.4 381.774 743.875 309.838 723.417 309.838 728.129 295.59"/>
          <polygon class="cls-7" points="728.129 295.59 788.233 295.563 782.489 309.95 763.642 309.838 738.244 381.774 719.4 381.774 743.875 309.838 723.417 309.838 728.129 295.59"/>
          <g class="cls-6">
            <polygon points="800.679 314.5 848.714 314.515 844.117 325.922 817.46 325.922 811.479 342.383 837.222 342.383 831.935 355.745 806.657 355.745 800.794 371.88 827.914 371.88 823.315 383.45 777.464 383.45 800.679 314.5"/>
            <polygon class="cls-7" points="800.679 314.5 848.714 314.515 844.117 325.922 817.46 325.922 811.479 342.383 837.222 342.383 831.935 355.745 806.657 355.745 800.794 371.88 827.914 371.88 823.315 383.45 777.464 383.45 800.679 314.5"/>
          </g>
          <polygon class="cls-5" points="797.326 312.824 845.36 312.839 840.767 324.247 814.107 324.247 808.127 340.706 833.871 340.706 828.584 354.07 803.304 354.07 797.442 370.205 824.561 370.205 819.962 381.774 774.114 381.774 797.326 312.824"/>
          <polygon class="cls-7" points="797.326 312.824 845.36 312.839 840.767 324.247 814.107 324.247 808.127 340.706 833.871 340.706 828.584 354.07 803.304 354.07 797.442 370.205 824.561 370.205 819.962 381.774 774.114 381.774 797.326 312.824"/>
          <g class="cls-6">
            <path d="M892.51739,371.95746l-4.48127,11.493q0-.22831-45.28049,0-.11421-.11088-2.065-2.4119a4.4711,4.4711,0,0,1-1.61049-2.992,2.29343,2.29343,0,0,1,.22838-1.03311L859.191,319.32715a8.26637,8.26637,0,0,1,3.67875-3.79456A17.54006,17.54006,0,0,1,865.51107,314.5l48.95379.01526-4.25177,11.362H878.495a4.909,4.909,0,0,0-3.67664,2.41357l-14.82592,39.1865a3.509,3.509,0,0,0-.8014,2.18463,2.93633,2.93633,0,0,0,1.0319,2.29553Z"/>
            <path class="cls-7" d="M892.51739,371.95746l-4.48127,11.493q0-.22831-45.28049,0-.11421-.11088-2.065-2.4119a4.4711,4.4711,0,0,1-1.61049-2.992,2.29343,2.29343,0,0,1,.22838-1.03311L859.191,319.32715a8.26637,8.26637,0,0,1,3.67875-3.79456A17.54006,17.54006,0,0,1,865.51107,314.5l48.95379.01526-4.25177,11.362H878.495a4.909,4.909,0,0,0-3.67664,2.41357l-14.82592,39.1865a3.509,3.509,0,0,0-.8014,2.18463,2.93633,2.93633,0,0,0,1.0319,2.29553Z"/>
          </g>
          <path class="cls-5" d="M889.16368,370.28227l-4.48339,11.49136q0-.22833-45.275,0c-.07828-.07283-.76444-.87746-2.06826-2.41346a4.45991,4.45991,0,0,1-1.60838-2.98881,2.24389,2.24389,0,0,1,.23173-1.0358l19.877-57.68527a8.268,8.268,0,0,1,3.67664-3.79291,17.72813,17.72813,0,0,1,2.64574-1.03311l48.95156.0147-4.25178,11.36141H875.14462a4.91163,4.91163,0,0,0-3.67663,2.41523l-14.82592,39.18372a3.51349,3.51349,0,0,0-.80475,2.18518,2.94316,2.94316,0,0,0,1.03525,2.29776Z"/>
          <path class="cls-7" d="M889.16368,370.28227l-4.48339,11.49136q0-.22833-45.275,0c-.07828-.07283-.76444-.87746-2.06826-2.41346a4.45991,4.45991,0,0,1-1.60838-2.98881,2.24389,2.24389,0,0,1,.23173-1.0358l19.877-57.68527a8.268,8.268,0,0,1,3.67664-3.79291,17.72813,17.72813,0,0,1,2.64574-1.03311l48.95156.0147-4.25178,11.36141H875.14462a4.91163,4.91163,0,0,0-3.67663,2.41523l-14.82592,39.18372a3.51349,3.51349,0,0,0-.80475,2.18518,2.94316,2.94316,0,0,0,1.03525,2.29776Z"/>
          <g class="cls-6">
            <polygon points="948.879 349.228 963.35 314.515 979.832 314.515 952.485 383.45 936.163 383.45 944.554 360.636 927.384 360.636 918.622 383.45 901.917 383.45 925.475 314.515 943.902 314.515 931.348 349.228 948.879 349.228"/>
            <polygon class="cls-7" points="948.879 349.228 963.35 314.515 979.832 314.515 952.485 383.45 936.163 383.45 944.554 360.636 927.384 360.636 918.622 383.45 901.917 383.45 925.475 314.515 943.902 314.515 931.348 349.228 948.879 349.228"/>
          </g>
          <polygon class="cls-5" points="945.526 347.551 960 312.839 976.482 312.839 949.131 381.774 932.81 381.774 941.2 358.959 924.03 358.959 915.268 381.774 898.567 381.774 922.123 312.839 940.549 312.839 927.998 347.551 945.526 347.551"/>
          <polygon class="cls-7" points="945.526 347.551 960 312.839 976.482 312.839 949.131 381.774 932.81 381.774 941.2 358.959 924.03 358.959 915.268 381.774 898.567 381.774 922.123 312.839 940.549 312.839 927.998 347.551 945.526 347.551"/>
        </g>
      </g>
    </g>
  </g>
</svg>
